# Blender v3.2.1 OBJ File: ''
# www.blender.org
mtllib footballer3.mtl
o Icosphere
v 0.000000 -1.000000 0.000000
v -0.000005 -0.447220 -0.894424
v 0.850646 -0.447220 -0.276397
v 0.525731 -0.447216 0.723606
v -0.525733 -0.447220 0.723602
v -0.850646 -0.447220 -0.276397
v 0.525733 0.447220 -0.723602
v -0.525731 0.447216 -0.723606
v 0.716561 -0.657519 -0.232829
v 0.499994 -0.850654 -0.162461
v 0.238852 -0.967950 -0.077609
v -0.000001 -0.967950 -0.251144
v -0.000003 -0.850654 -0.525726
v -0.000004 -0.657519 -0.753438
v 0.238850 -0.502302 -0.831050
v 0.499994 -0.525738 -0.688191
v 0.716561 -0.502302 -0.483976
v -0.716563 -0.502301 -0.483975
v -0.499998 -0.525736 -0.688188
v -0.238858 -0.502301 -0.831048
v -0.238852 -0.967950 -0.077609
v -0.499994 -0.850654 -0.162461
v -0.716561 -0.657519 -0.232829
v 0.442862 -0.657515 0.609547
v 0.309016 -0.850652 0.425324
v 0.147621 -0.967949 0.203182
v 0.864184 -0.502302 -0.029645
v 0.809014 -0.525736 0.262866
v 0.681716 -0.502299 0.531940
v -0.442863 -0.657519 0.609542
v -0.309016 -0.850654 0.425319
v -0.147620 -0.967950 0.203179
v 0.295243 -0.502299 0.812729
v 0.000002 -0.525736 0.850648
v -0.295241 -0.502302 0.812727
v -0.681718 -0.502302 0.531934
v -0.809015 -0.525738 0.262860
v -0.864184 -0.502302 -0.029649
v -0.442865 0.251149 -0.860694
v -0.309022 -0.000000 -0.951055
v -0.147626 -0.251151 -0.956624
v -0.864185 -0.251151 -0.436014
v -0.809014 0.000000 -0.587789
v -0.681716 0.251149 -0.687158
v 0.681719 0.251152 -0.687155
v 0.809017 -0.000000 -0.587785
v 0.864186 -0.251152 -0.436012
v 0.147617 -0.251152 -0.956625
v 0.309016 0.000000 -0.951057
v 0.442864 0.251152 -0.860694
v 0.864185 0.251151 0.436014
v 0.809014 -0.000000 0.587789
v 0.681716 -0.251149 0.687158
v 0.955421 -0.251152 -0.155220
v 1.000000 0.000000 0.000000
v 0.955421 0.251152 0.155221
v -0.147617 0.251152 0.956625
v -0.309016 -0.000000 0.951057
v -0.442864 -0.251152 0.860694
v 0.442865 -0.251149 0.860694
v 0.309022 0.000000 0.951055
v 0.147626 0.251151 0.956624
v -0.955421 0.251152 0.155220
v -1.000000 -0.000000 -0.000000
v -0.955421 -0.251152 -0.155221
v -0.681719 -0.251152 0.687155
v -0.809017 0.000000 0.587785
v -0.864186 0.251152 0.436012
v -0.295243 0.502299 -0.812729
v -0.000002 0.525736 -0.850648
v 0.295241 0.502302 -0.812727
v 0.681718 0.502302 -0.531934
v -0.681716 0.502299 -0.531940
v 0.442863 0.657519 -0.609542
v -0.442862 0.657515 -0.609547
v 0.162460 0.723612 -0.670815
v -0.162459 0.723610 -0.670817
v -0.850649 0.276396 -0.447216
v -0.951055 0.000000 -0.309021
v -0.688189 0.276397 0.670821
v -0.587786 -0.000000 0.809017
v -0.425323 0.276397 0.861803
v 0.425327 0.276396 0.861802
v 0.587786 0.000001 0.809017
v 0.688189 0.276397 0.670821
v 0.951056 -0.000001 -0.309017
v 0.850651 0.276397 -0.447211
v 0.162459 0.276396 -0.947213
v -0.000003 -0.000002 -1.000000
v -0.162462 0.276394 -0.947213
v -0.951056 -0.000000 0.309017
v -0.951056 -0.276398 0.138194
v -0.850651 -0.276398 0.447211
v 0.000003 -0.000000 1.000000
v -0.162460 -0.276397 0.947212
v 0.162461 -0.276396 0.947213
v 0.951056 0.000000 0.309019
v 0.850650 -0.276396 0.447214
v 0.951056 -0.276397 0.138195
v 0.587785 0.000000 -0.809017
v 0.688188 -0.276398 -0.670822
v 0.425322 -0.276398 -0.861804
v -0.587785 0.000000 -0.809017
v -0.425327 -0.276396 -0.861802
v -0.688189 -0.276396 -0.670821
v -0.688186 -0.723612 0.052783
v -0.425322 -0.894429 0.138194
v -0.587783 -0.723611 0.361799
v -0.162458 -0.723612 0.670816
v 0.000001 -0.894429 0.447210
v 0.162461 -0.723609 0.670817
v 0.587783 -0.723609 0.361803
v 0.425323 -0.894428 0.138196
v 0.688187 -0.723610 0.052785
v -0.525727 -0.723611 -0.447213
v -0.262866 -0.723610 -0.638193
v -0.262863 -0.894428 -0.361802
v 0.525724 -0.723612 -0.447214
v 0.262860 -0.894429 -0.361802
v 0.262860 -0.723611 -0.638194
v 1.012203 0.289893 0.170313
v 0.901202 0.497613 0.298691
v 0.156400 0.289892 1.019346
v 0.000006 0.497613 0.953449
v -0.915546 0.289892 0.467792
v -0.901202 0.497613 0.298691
v 0.915544 0.555969 0.037278
v 0.253054 0.555968 0.886307
v -0.759148 0.555969 0.518608
v -0.156394 1.049290 -0.209390
v 0.000000 1.083246 0.005868
v 0.759148 0.720411 0.252534
v 0.000005 0.720411 0.804084
v -0.759147 0.720411 0.252534
v 0.915545 0.289892 0.467795
v 1.059432 0.023814 0.005868
v -0.156391 0.289893 1.019347
v -1.012203 0.289893 0.170313
v -1.059432 0.023814 0.005868
v 0.722234 0.555969 -0.557680
v 0.857096 0.580798 -0.272614
v 0.759149 0.555968 0.518607
v 0.529714 0.580796 0.734957
v -0.253045 0.555969 0.886308
v -0.529709 0.580798 0.734959
v -0.915544 0.555969 0.037275
v -0.857095 0.580796 -0.272621
v -0.722232 0.555966 -0.557686
v 0.156393 1.049291 -0.209387
v 0.327381 0.925025 -0.444729
v 0.469183 0.720411 -0.639900
v -0.469182 0.720406 -0.639906
v -0.327382 0.925022 -0.444734
v 0.253048 1.049291 0.088089
v 0.529710 0.925025 0.177984
v 0.000002 1.049291 0.271938
v 0.000003 0.925025 0.562838
v -0.253047 1.049291 0.088089
v -0.529709 0.925025 0.177984
v -0.450599 0.971401 -0.140541
v -0.729086 0.790432 -0.050054
v -0.622715 0.790430 -0.377436
v -0.278483 0.971402 0.389171
v -0.278482 0.790432 0.681990
v -0.556969 0.790432 0.479659
v 0.278486 0.971401 0.389171
v 0.556972 0.790431 0.479659
v 0.278488 0.790431 0.681989
v 0.450599 0.971402 -0.140538
v 0.622715 0.790432 -0.377432
v 0.729086 0.790432 -0.050051
v -0.000000 0.971401 -0.467920
v -0.172115 0.790430 -0.704817
v 0.172115 0.790432 -0.704815
v -0.901204 0.316637 -0.467927
v -1.007578 0.316639 -0.140543
v -1.007578 0.023814 -0.321518
v -0.729089 0.316638 0.716557
v -0.450600 0.316638 0.918890
v 0.450605 0.316637 0.918888
v 0.729090 0.316638 0.716557
v 1.007579 0.316638 -0.140539
v 0.901207 0.316638 -0.467922
v 1.007580 0.023814 -0.321515
vt 0.181819 0.000000
vt 0.204546 0.039365
vt 0.159092 0.039365
vt 0.272728 0.157461
vt 0.295455 0.118096
vt 0.318182 0.157461
vt 0.909091 0.000000
vt 0.931818 0.039365
vt 0.886364 0.039365
vt 0.727273 0.000000
vt 0.750000 0.039365
vt 0.704546 0.039365
vt 0.545455 0.000000
vt 0.568182 0.039365
vt 0.522728 0.039365
vt 0.295455 0.196826
vt 0.090910 0.157461
vt 0.136364 0.157461
vt 0.113637 0.196826
vt 0.818182 0.157461
vt 0.863636 0.157461
vt 0.840909 0.196826
vt 0.636364 0.157461
vt 0.681818 0.157461
vt 0.659091 0.196826
vt 0.454546 0.157461
vt 0.500000 0.157461
vt 0.477273 0.196826
vt 0.250001 0.196826
vt 0.068182 0.196826
vt 0.795455 0.196826
vt 0.613637 0.196826
vt 0.431819 0.196826
vt 0.181819 0.314921
vt 0.227273 0.314921
vt 0.204546 0.354286
vt 0.363637 0.314921
vt 0.409091 0.314921
vt 0.386364 0.354286
vt 0.136364 0.314921
vt 0.159092 0.354286
vt 0.250001 0.354286
vt 0.272728 0.314921
vt 0.295455 0.354286
vt 0.318182 0.314921
vt 0.340910 0.354286
vt 0.386364 0.275556
vt 0.409091 0.236191
vt 0.431819 0.275556
vt 0.454546 0.236191
vt 0.500000 0.236191
vt 0.590909 0.236191
vt 0.613637 0.275556
vt 0.568182 0.275556
vt 0.636364 0.236191
vt 0.659091 0.275556
vt 0.681818 0.236191
vt 0.704546 0.275556
vt 0.772727 0.236191
vt 0.795455 0.275556
vt 0.750000 0.275556
vt 0.818182 0.236191
vt 0.840909 0.275556
vt 0.863636 0.236191
vt 0.886364 0.275556
vt 0.090910 0.236191
vt 0.045455 0.236191
vt 0.136364 0.236191
vt 0.113637 0.275556
vt 0.159092 0.275556
vt 0.204546 0.275556
vt 0.227273 0.236191
vt 0.250001 0.275556
vt 0.272728 0.236191
vt 0.295455 0.275556
vt 0.318182 0.236191
vt 0.340910 0.275556
vt 0.545455 0.236191
vt 0.522728 0.275556
vt 0.522728 0.196826
vt 0.568182 0.196826
vt 0.545455 0.157461
vt 0.590909 0.157461
vt 0.727273 0.236191
vt 0.704546 0.196826
vt 0.750000 0.196826
vt 0.727273 0.157461
vt 0.772727 0.157461
vt 0.909091 0.236191
vt 0.886364 0.196826
vt 0.931818 0.275556
vt 0.954545 0.236191
vt 0.931818 0.196826
vt 0.977273 0.196826
vt 0.909091 0.157461
vt 0.954545 0.157461
vt 1.000000 0.157461
vt 0.181819 0.236191
vt 0.159092 0.196826
vt 0.204546 0.196826
vt 0.181819 0.157461
vt 0.227274 0.157461
vt 0.363637 0.236191
vt 0.340910 0.196826
vt 0.386364 0.196826
vt 0.363637 0.157461
vt 0.409092 0.157461
vt 0.477273 0.118096
vt 0.500000 0.078731
vt 0.522728 0.118096
vt 0.545455 0.078731
vt 0.568182 0.118096
vt 0.590909 0.078731
vt 0.613637 0.118096
vt 0.659091 0.118096
vt 0.681818 0.078731
vt 0.704546 0.118096
vt 0.727273 0.078731
vt 0.750000 0.118096
vt 0.772727 0.078731
vt 0.795455 0.118096
vt 0.840909 0.118096
vt 0.863636 0.078731
vt 0.886364 0.118096
vt 0.909091 0.078731
vt 0.931818 0.118096
vt 0.954545 0.078731
vt 0.977273 0.118096
vt 0.431819 0.118096
vt 0.386364 0.118096
vt 0.340910 0.118096
vt 0.409091 0.078731
vt 0.363637 0.078730
vt 0.386364 0.039365
vt 0.318182 0.078731
vt 0.340910 0.039365
vt 0.363637 0.000000
vt 0.113637 0.118096
vt 0.136365 0.078731
vt 0.159092 0.118096
vt 0.181819 0.078731
vt 0.204546 0.118096
vt 0.227273 0.078731
vt 0.250001 0.118096
vt 0.568182 0.275556
vt 0.522728 0.275556
vt 0.500000 0.236191
vt 0.250001 0.354286
vt 0.204546 0.354286
vt 0.954545 0.236191
vt 0.931818 0.275556
vt 0.886364 0.275556
vt 0.840909 0.275556
vt 0.340910 0.354286
vt 0.295455 0.354286
vt 0.113637 0.275556
vt 0.090910 0.236191
vt 0.431819 0.275556
vt 0.409091 0.314921
vt 0.454546 0.236191
vt 0.659091 0.275556
vt 0.613637 0.275556
vt 0.136364 0.314921
vt 0.795455 0.275556
vt 0.750000 0.275556
vt 0.704546 0.275556
vt 0.386364 0.354286
vt 0.159092 0.354286
vt 0.045455 0.236191
vt 0.000000 0.314921
vt 0.045455 0.314921
vt 0.022727 0.354286
vt 0.727273 0.314921
vt 0.772727 0.314921
vt 0.750000 0.354286
vt 0.545455 0.314921
vt 0.590909 0.314921
vt 0.568182 0.354286
vt 0.431819 0.433017
vt 0.477273 0.433017
vt 0.454546 0.472382
vt 0.409091 0.393651
vt 0.454546 0.393651
vt 0.431819 0.354286
vt 0.500000 0.393651
vt 0.477273 0.354286
vt 0.522728 0.354286
vt 0.454546 0.314921
vt 0.500000 0.314921
vt 0.613637 0.433017
vt 0.659091 0.433017
vt 0.636364 0.472382
vt 0.590909 0.393651
vt 0.636364 0.393651
vt 0.613637 0.354286
vt 0.681818 0.393651
vt 0.659091 0.354286
vt 0.704546 0.354286
vt 0.636364 0.314921
vt 0.681818 0.314921
vt 0.795455 0.433017
vt 0.840909 0.433017
vt 0.818182 0.472382
vt 0.772727 0.393651
vt 0.818182 0.393651
vt 0.795455 0.354286
vt 0.863636 0.393651
vt 0.840909 0.354286
vt 0.886364 0.354286
vt 0.818182 0.314921
vt 0.863636 0.314921
vt 0.909091 0.314921
vt 0.068182 0.433017
vt 0.113637 0.433017
vt 0.090910 0.472382
vt 0.045455 0.393651
vt 0.090910 0.393651
vt 0.068182 0.354286
vt 0.136365 0.393651
vt 0.113637 0.354286
vt 0.090909 0.314921
vt 0.250001 0.433017
vt 0.295455 0.433017
vt 0.272728 0.472382
vt 0.227273 0.393651
vt 0.272728 0.393651
vt 0.318182 0.393651
vt 0.477273 0.275556
vt 0.022727 0.275556
vt 0.068182 0.275556
vn 0.0916 -0.9878 -0.1261
vn -0.0916 -0.5545 -0.8271
vn 0.1482 -0.9878 0.0482
vn 0.0000 -0.9878 0.1558
vn -0.1482 -0.9878 0.0481
vn -0.1482 -0.3987 -0.9050
vn 0.8149 -0.3987 -0.4206
vn 0.6519 -0.3987 0.6451
vn -0.4121 -0.3987 0.8193
vn -0.9065 -0.3987 -0.1387
vn -0.0000 -0.3024 -0.9532
vn 0.9065 -0.3024 -0.2946
vn 0.5603 -0.3024 0.7711
vn -0.5603 -0.3024 0.7711
vn -0.9065 -0.3024 -0.2946
vn 0.4121 0.5545 -0.7230
vn -0.5603 0.5545 -0.6153
vn 0.5603 0.5545 -0.6153
vn 0.3049 0.6369 -0.7081
vn 0.1487 0.5955 -0.7895
vn 0.0000 0.6726 -0.7400
vn -0.1487 0.5955 -0.7895
vn -0.3049 0.6369 -0.7081
vn -0.4121 0.5545 -0.7230
vn -0.6519 0.3987 -0.6451
vn -0.7964 0.1745 -0.5791
vn -0.8883 -0.0784 -0.4526
vn -0.7488 0.3485 -0.5638
vn -0.8869 0.0962 -0.4519
vn -0.9372 -0.1702 -0.3045
vn -0.9846 -0.0784 -0.1560
vn -0.7968 0.1745 0.5785
vn -0.7049 -0.0784 0.7049
vn -0.7038 0.0962 0.7038
vn -0.5773 0.1876 0.7947
vn -0.5792 -0.1702 0.7972
vn -0.4526 -0.0784 0.8883
vn -0.4519 0.0962 0.8869
vn -0.3039 0.1745 0.9366
vn 0.3039 0.1745 0.9366
vn 0.4526 -0.0784 0.8883
vn 0.4519 0.0962 0.8869
vn 0.5774 0.1876 0.7947
vn 0.5792 -0.1702 0.7972
vn 0.7049 -0.0784 0.7049
vn 0.7038 0.0962 0.7038
vn 0.7968 0.1745 0.5785
vn 0.9846 -0.0784 -0.1560
vn 0.9372 -0.1702 -0.3045
vn 0.8883 -0.0784 -0.4526
vn 0.8869 0.0962 -0.4519
vn 0.7964 0.1745 -0.5791
vn 0.7488 0.3485 -0.5638
vn 0.6519 0.3987 -0.6451
vn 0.4121 0.3987 -0.8193
vn 0.3046 0.1745 -0.9363
vn 0.1560 -0.0784 -0.9846
vn 0.3049 0.3485 -0.8864
vn 0.1487 0.4399 -0.8857
vn 0.1557 0.0962 -0.9831
vn -0.0000 0.1876 -0.9822
vn -0.0000 0.3611 -0.9325
vn -0.1487 0.4399 -0.8857
vn -0.0000 -0.1702 -0.9854
vn -0.1560 -0.0784 -0.9846
vn -0.1557 0.0962 -0.9831
vn -0.3046 0.1745 -0.9363
vn -0.3049 0.3485 -0.8864
vn -0.4121 0.3987 -0.8193
vn -0.9846 0.0784 0.1560
vn -0.9846 -0.1745 -0.0004
vn -0.9372 0.1702 0.3045
vn -0.8883 0.0784 0.4526
vn -0.9831 -0.0962 0.1557
vn -0.9342 -0.1876 0.3035
vn -0.8869 -0.0962 0.4519
vn -0.7964 -0.1745 0.5791
vn -0.9372 -0.3485 -0.0160
vn -0.8883 -0.4399 0.1323
vn -0.8869 -0.3611 0.2882
vn -0.7964 -0.4399 0.4151
vn -0.7488 -0.3485 0.5638
vn -0.6519 -0.3987 0.6451
vn -0.1560 0.0784 0.9846
vn -0.3046 -0.1745 0.9363
vn 0.0000 0.1702 0.9854
vn 0.1560 0.0784 0.9846
vn -0.1557 -0.0962 0.9831
vn 0.0000 -0.1876 0.9822
vn 0.1557 -0.0962 0.9831
vn 0.3046 -0.1745 0.9363
vn -0.3049 -0.3485 0.8864
vn -0.1487 -0.4399 0.8857
vn 0.0000 -0.3611 0.9325
vn 0.1487 -0.4399 0.8857
vn 0.3049 -0.3485 0.8864
vn 0.4121 -0.3987 0.8193
vn 0.8883 0.0784 0.4526
vn 0.7964 -0.1745 0.5791
vn 0.9372 0.1702 0.3045
vn 0.9846 0.0784 0.1560
vn 0.8869 -0.0962 0.4519
vn 0.9342 -0.1876 0.3035
vn 0.9831 -0.0962 0.1557
vn 0.9846 -0.1745 -0.0004
vn 0.7488 -0.3485 0.5638
vn 0.7964 -0.4399 0.4151
vn 0.8869 -0.3611 0.2882
vn 0.8883 -0.4399 0.1323
vn 0.9372 -0.3485 -0.0160
vn 0.9065 -0.3987 -0.1387
vn 0.5603 0.3024 -0.7711
vn 0.7049 0.0784 -0.7049
vn 0.7968 -0.1745 -0.5785
vn 0.5792 0.1702 -0.7972
vn 0.4526 0.0784 -0.8883
vn 0.7038 -0.0962 -0.7038
vn 0.5773 -0.1876 -0.7947
vn 0.4519 -0.0962 -0.8869
vn 0.3039 -0.1745 -0.9366
vn 0.7676 -0.3485 -0.5379
vn 0.6409 -0.4399 -0.6291
vn 0.5481 -0.3611 -0.7544
vn 0.4003 -0.4399 -0.8039
vn 0.2743 -0.3485 -0.8963
vn 0.1482 -0.3987 -0.9050
vn -0.5603 0.3024 -0.7711
vn -0.4526 0.0784 -0.8883
vn -0.3039 -0.1745 -0.9366
vn -0.5792 0.1702 -0.7972
vn -0.7049 0.0784 -0.7049
vn -0.4519 -0.0962 -0.8869
vn -0.5774 -0.1876 -0.7947
vn -0.7038 -0.0962 -0.7038
vn -0.7968 -0.1745 -0.5785
vn -0.2744 -0.3485 -0.8963
vn -0.4003 -0.4399 -0.8039
vn -0.5481 -0.3611 -0.7544
vn -0.6409 -0.4399 -0.6291
vn -0.7676 -0.3485 -0.5379
vn -0.8149 -0.3987 -0.4206
vn -0.8149 -0.5545 -0.1685
vn -0.6409 -0.7594 -0.1121
vn -0.4003 -0.9158 -0.0339
vn -0.7676 -0.6369 -0.0711
vn -0.7968 -0.5955 0.1026
vn -0.5481 -0.8363 0.0144
vn -0.5773 -0.7947 0.1876
vn -0.7038 -0.6726 0.2287
vn -0.7049 -0.5955 0.3854
vn -0.2744 -0.9575 0.0891
vn -0.3039 -0.9158 0.2627
vn -0.4519 -0.8363 0.3105
vn -0.4526 -0.7594 0.4673
vn -0.5792 -0.6369 0.5087
vn -0.5603 -0.5545 0.6153
vn -0.4121 -0.5545 0.7230
vn -0.3046 -0.7594 0.5749
vn -0.1560 -0.9158 0.3702
vn -0.3049 -0.6369 0.7081
vn -0.1487 -0.5955 0.7895
vn -0.1557 -0.8363 0.5257
vn 0.0000 -0.7947 0.6071
vn 0.0000 -0.6726 0.7400
vn 0.1487 -0.5955 0.7895
vn -0.0000 -0.9575 0.2885
vn 0.1560 -0.9158 0.3702
vn 0.1557 -0.8363 0.5257
vn 0.3046 -0.7594 0.5749
vn 0.3049 -0.6369 0.7081
vn 0.4121 -0.5545 0.7230
vn 0.5603 -0.5545 0.6153
vn 0.4526 -0.7594 0.4674
vn 0.3039 -0.9158 0.2627
vn 0.5792 -0.6369 0.5087
vn 0.7049 -0.5955 0.3854
vn 0.4519 -0.8363 0.3105
vn 0.5773 -0.7947 0.1876
vn 0.7038 -0.6726 0.2287
vn 0.7968 -0.5955 0.1026
vn 0.2744 -0.9575 0.0891
vn 0.4003 -0.9158 -0.0339
vn 0.5481 -0.8363 0.0144
vn 0.6409 -0.7594 -0.1121
vn 0.7676 -0.6369 -0.0711
vn 0.8149 -0.5545 -0.1685
vn -0.7583 -0.5545 -0.3427
vn -0.5843 -0.5955 -0.5513
vn -0.3438 -0.5955 -0.7261
vn -0.6628 -0.6369 -0.3937
vn -0.5843 -0.7594 -0.2860
vn -0.4350 -0.6726 -0.5987
vn -0.3568 -0.7947 -0.4911
vn -0.4350 -0.8363 -0.3338
vn -0.3438 -0.9158 -0.2079
vn -0.1696 -0.6369 -0.7520
vn -0.0915 -0.7594 -0.6441
vn -0.1830 -0.8363 -0.5168
vn -0.0915 -0.9158 -0.3912
vn -0.1696 -0.9575 -0.2334
vn -0.0916 -0.9878 -0.1261
vn 0.7583 -0.5545 -0.3427
vn 0.5843 -0.7594 -0.2860
vn 0.3438 -0.9158 -0.2079
vn 0.6628 -0.6369 -0.3937
vn 0.5843 -0.5955 -0.5513
vn 0.4350 -0.8363 -0.3338
vn 0.3568 -0.7947 -0.4911
vn 0.4350 -0.6726 -0.5987
vn 0.3438 -0.5955 -0.7261
vn 0.1696 -0.9575 -0.2334
vn 0.0914 -0.9158 -0.3912
vn 0.1830 -0.8363 -0.5168
vn 0.0914 -0.7594 -0.6441
vn 0.1696 -0.6369 -0.7520
vn 0.0916 -0.5545 -0.8271
vn -0.5241 -0.8345 0.1703
vn -0.1187 -0.5067 0.8539
vn 0.0842 -0.4615 -0.8831
vn 0.1187 -0.5067 0.8539
vn 0.3926 -0.8356 0.3841
vn 0.5241 -0.8345 0.1703
vn -0.0842 -0.4615 -0.8831
vn -0.0081 -0.4495 -0.8932
vn 0.0639 -0.3920 -0.9177
vn -0.3764 -0.9246 -0.0596
vn -0.3235 -0.8349 0.4453
vn -0.0639 -0.3920 -0.9177
vn 0.2420 -0.8403 0.4851
vn -0.2420 -0.8403 0.4851
vn -0.0000 -0.8508 0.5255
vn -0.0079 -0.4374 -0.8992
vn 0.0079 -0.4374 -0.8992
vn 0.3764 -0.9246 -0.0596
vn 0.0000 -0.4535 -0.8913
vn -0.3926 -0.8356 0.3841
vn 0.0081 -0.4495 -0.8932
vn 0.3235 -0.8349 0.4453
vn 0.8149 0.5545 0.1685
vn 0.0916 0.5545 0.8271
vn -0.7583 0.5545 0.3427
vn -0.1482 0.9878 -0.0482
vn -0.3039 0.9158 -0.2627
vn -0.4526 0.7594 -0.4674
vn -0.2744 0.9575 -0.0891
vn -0.4003 0.9158 0.0339
vn -0.4519 0.8363 -0.3105
vn -0.5773 0.7947 -0.1876
vn -0.5481 0.8363 -0.0144
vn -0.6409 0.7594 0.1121
vn -0.5792 0.6369 -0.5087
vn -0.7049 0.5955 -0.3854
vn -0.7038 0.6726 -0.2287
vn -0.7968 0.5955 -0.1026
vn -0.7676 0.6369 0.0711
vn -0.8149 0.5545 0.1685
vn -0.0916 0.9878 0.1261
vn -0.3438 0.9158 0.2079
vn -0.5843 0.7594 0.2860
vn -0.1696 0.9575 0.2334
vn -0.0914 0.9158 0.3912
vn -0.4350 0.8363 0.3338
vn -0.3568 0.7947 0.4911
vn -0.1830 0.8363 0.5168
vn -0.0914 0.7594 0.6441
vn -0.6628 0.6369 0.3937
vn -0.5843 0.5955 0.5513
vn -0.4350 0.6726 0.5987
vn -0.3438 0.5955 0.7261
vn -0.1696 0.6369 0.7520
vn -0.0916 0.5545 0.8271
vn 0.0916 0.9878 0.1261
vn 0.0915 0.9158 0.3912
vn 0.0915 0.7594 0.6441
vn 0.1696 0.9575 0.2334
vn 0.3438 0.9158 0.2079
vn 0.1830 0.8363 0.5168
vn 0.3568 0.7947 0.4911
vn 0.4350 0.8363 0.3338
vn 0.5843 0.7594 0.2860
vn 0.1696 0.6369 0.7520
vn 0.3438 0.5955 0.7261
vn 0.4350 0.6726 0.5987
vn 0.5843 0.5955 0.5513
vn 0.6628 0.6369 0.3937
vn 0.7583 0.5545 0.3427
vn 0.1482 0.9878 -0.0481
vn 0.4003 0.9158 0.0339
vn 0.6409 0.7594 0.1121
vn 0.2743 0.9575 -0.0891
vn 0.3039 0.9158 -0.2627
vn 0.5481 0.8363 -0.0144
vn 0.5773 0.7947 -0.1876
vn 0.4519 0.8363 -0.3105
vn 0.4526 0.7594 -0.4673
vn 0.7676 0.6369 0.0711
vn 0.7968 0.5955 -0.1026
vn 0.7038 0.6726 -0.2287
vn 0.7049 0.5955 -0.3854
vn 0.5792 0.6369 -0.5087
vn -0.0000 0.9878 -0.1558
vn 0.1560 0.9158 -0.3702
vn 0.3046 0.7594 -0.5749
vn 0.0000 0.9575 -0.2885
vn -0.1560 0.9158 -0.3702
vn 0.1557 0.8363 -0.5257
vn -0.0000 0.7947 -0.6071
vn -0.1557 0.8363 -0.5257
vn -0.3046 0.7594 -0.5749
vn -0.7964 0.4399 -0.4151
vn -0.9342 0.1876 -0.3035
vn -0.8869 0.3611 -0.2882
vn -0.8883 0.4399 -0.1323
vn -0.9831 0.0962 -0.1557
vn -0.9846 0.1745 0.0004
vn -0.9372 0.3485 0.0160
vn -0.9065 0.3987 0.1387
vn -0.8149 0.3987 0.4206
vn -0.7676 0.3485 0.5379
vn -0.6409 0.4399 0.6291
vn -0.5481 0.3611 0.7544
vn -0.4003 0.4399 0.8039
vn -0.2743 0.3485 0.8963
vn -0.1482 0.3987 0.9050
vn 0.1482 0.3987 0.9050
vn 0.2744 0.3485 0.8963
vn 0.4003 0.4399 0.8039
vn 0.5481 0.3611 0.7544
vn 0.6409 0.4399 0.6291
vn 0.7676 0.3485 0.5379
vn 0.8149 0.3987 0.4206
vn 0.9065 0.3987 0.1387
vn 0.9846 0.1745 0.0004
vn 0.9372 0.3485 0.0160
vn 0.8883 0.4399 -0.1323
vn 0.9831 0.0962 -0.1557
vn 0.9342 0.1876 -0.3035
vn 0.8869 0.3611 -0.2882
vn 0.7964 0.4399 -0.4151
vn -0.9065 0.3024 0.2946
vn 0.0000 0.3024 0.9532
vn 0.9065 0.3024 0.2946
usemtl Material.001
s off
f 1/1/1 12/2/1 11/3/1
f 2/4/2 14/5/2 20/6/2
f 1/7/3 11/8/3 26/9/3
f 1/10/4 26/11/4 32/12/4
f 1/13/5 32/14/5 21/15/5
f 2/4/6 20/6/6 41/16/6
f 3/17/7 17/18/7 47/19/7
f 4/20/8 29/21/8 53/22/8
f 5/23/9 35/24/9 59/25/9
f 6/26/10 38/27/10 65/28/10
f 2/4/11 41/16/11 48/29/11
f 3/17/12 47/19/12 54/30/12
f 4/20/13 53/22/13 60/31/13
f 5/23/14 59/25/14 66/32/14
f 6/26/15 65/28/15 42/33/15
f 7/34/16 71/35/16 74/36/16
f 8/37/17 73/38/17 75/39/17
f 72/40/18 7/34/18 74/41/18
f 74/36/19 71/35/19 76/42/19
f 71/35/20 70/43/20 76/42/20
f 76/42/21 70/43/21 77/44/21
f 70/43/22 69/45/22 77/44/22
f 77/44/23 69/45/23 75/46/23
f 69/45/24 8/37/24 75/46/24
f 44/47/25 73/38/25 8/37/25
f 43/48/26 78/49/26 44/47/26
f 42/33/27 79/50/27 43/48/27
f 44/47/28 78/49/28 73/38/28
f 43/48/29 79/50/29 78/49/29
f 42/33/30 65/28/30 79/50/30
f 65/28/31 64/51/31 79/50/31
f 67/52/32 80/53/32 68/54/32
f 66/32/33 81/55/33 67/52/33
f 67/52/34 81/55/34 80/53/34
f 81/55/35 82/56/35 80/53/35
f 66/32/36 59/25/36 81/55/36
f 59/25/37 58/57/37 81/55/37
f 81/55/38 58/57/38 82/56/38
f 58/57/39 57/58/39 82/56/39
f 61/59/40 83/60/40 62/61/40
f 60/31/41 84/62/41 61/59/41
f 61/59/42 84/62/42 83/60/42
f 84/62/43 85/63/43 83/60/43
f 60/31/44 53/22/44 84/62/44
f 53/22/45 52/64/45 84/62/45
f 84/62/46 52/64/46 85/63/46
f 52/64/47 51/65/47 85/63/47
f 54/30/48 86/66/48 55/67/48
f 54/30/49 47/19/49 86/66/49
f 47/19/50 46/68/50 86/66/50
f 86/66/51 46/68/51 87/69/51
f 46/68/52 45/70/52 87/69/52
f 87/69/53 45/70/53 72/40/53
f 45/70/54 7/34/54 72/40/54
f 50/71/55 71/35/55 7/34/55
f 49/72/56 88/73/56 50/71/56
f 48/29/57 89/74/57 49/72/57
f 50/71/58 88/73/58 71/35/58
f 88/73/59 70/43/59 71/35/59
f 49/72/60 89/74/60 88/73/60
f 89/74/61 90/75/61 88/73/61
f 88/73/62 90/75/62 70/43/62
f 90/75/63 69/45/63 70/43/63
f 48/29/64 41/16/64 89/74/64
f 41/16/65 40/76/65 89/74/65
f 89/74/66 40/76/66 90/75/66
f 40/76/67 39/77/67 90/75/67
f 90/75/68 39/77/68 69/45/68
f 39/77/69 8/37/69 69/45/69
f 64/51/70 91/78/70 63/79/70
f 65/28/71 92/80/71 64/51/71
f 63/79/72 91/78/72 68/54/72
f 91/78/73 67/52/73 68/54/73
f 64/51/74 92/80/74 91/78/74
f 92/80/75 93/81/75 91/78/75
f 91/78/76 93/81/76 67/52/76
f 93/81/77 66/32/77 67/52/77
f 65/28/78 38/27/78 92/80/78
f 38/27/79 37/82/79 92/80/79
f 92/80/80 37/82/80 93/81/80
f 37/82/81 36/83/81 93/81/81
f 93/81/82 36/83/82 66/32/82
f 36/83/83 5/23/83 66/32/83
f 58/57/84 94/84/84 57/58/84
f 59/25/85 95/85/85 58/57/85
f 57/58/86 94/84/86 62/61/86
f 94/84/87 61/59/87 62/61/87
f 58/57/88 95/85/88 94/84/88
f 95/85/89 96/86/89 94/84/89
f 94/84/90 96/86/90 61/59/90
f 96/86/91 60/31/91 61/59/91
f 59/25/92 35/24/92 95/85/92
f 35/24/93 34/87/93 95/85/93
f 95/85/94 34/87/94 96/86/94
f 34/87/95 33/88/95 96/86/95
f 96/86/96 33/88/96 60/31/96
f 33/88/97 4/20/97 60/31/97
f 52/64/98 97/89/98 51/65/98
f 53/22/99 98/90/99 52/64/99
f 51/65/100 97/89/100 56/91/100
f 97/89/101 55/92/101 56/91/101
f 52/64/102 98/90/102 97/89/102
f 98/90/103 99/93/103 97/89/103
f 97/89/104 99/93/104 55/92/104
f 99/93/105 54/94/105 55/92/105
f 53/22/106 29/21/106 98/90/106
f 29/21/107 28/95/107 98/90/107
f 98/90/108 28/95/108 99/93/108
f 28/95/109 27/96/109 99/93/109
f 99/93/110 27/96/110 54/94/110
f 27/96/111 3/97/111 54/94/111
f 45/70/112 50/71/112 7/34/112
f 46/68/113 100/98/113 45/70/113
f 47/19/114 101/99/114 46/68/114
f 45/70/115 100/98/115 50/71/115
f 100/98/116 49/72/116 50/71/116
f 46/68/117 101/99/117 100/98/117
f 101/99/118 102/100/118 100/98/118
f 100/98/119 102/100/119 49/72/119
f 102/100/120 48/29/120 49/72/120
f 47/19/121 17/18/121 101/99/121
f 17/18/122 16/101/122 101/99/122
f 101/99/123 16/101/123 102/100/123
f 16/101/124 15/102/124 102/100/124
f 102/100/125 15/102/125 48/29/125
f 15/102/126 2/4/126 48/29/126
f 39/77/127 44/47/127 8/37/127
f 40/76/128 103/103/128 39/77/128
f 41/16/129 104/104/129 40/76/129
f 39/77/130 103/103/130 44/47/130
f 103/103/131 43/48/131 44/47/131
f 40/76/132 104/104/132 103/103/132
f 104/104/133 105/105/133 103/103/133
f 103/103/134 105/105/134 43/48/134
f 105/105/135 42/33/135 43/48/135
f 41/16/136 20/6/136 104/104/136
f 20/6/137 19/106/137 104/104/137
f 104/104/138 19/106/138 105/105/138
f 19/106/139 18/107/139 105/105/139
f 105/105/140 18/107/140 42/33/140
f 18/107/141 6/26/141 42/33/141
f 23/108/142 38/27/142 6/26/142
f 22/109/143 106/110/143 23/108/143
f 21/15/144 107/111/144 22/109/144
f 23/108/145 106/110/145 38/27/145
f 106/110/146 37/82/146 38/27/146
f 22/109/147 107/111/147 106/110/147
f 107/111/148 108/112/148 106/110/148
f 106/110/149 108/112/149 37/82/149
f 108/112/150 36/83/150 37/82/150
f 21/15/151 32/14/151 107/111/151
f 32/14/152 31/113/152 107/111/152
f 107/111/153 31/113/153 108/112/153
f 31/113/154 30/114/154 108/112/154
f 108/112/155 30/114/155 36/83/155
f 30/114/156 5/23/156 36/83/156
f 30/115/157 35/24/157 5/23/157
f 31/116/158 109/117/158 30/115/158
f 32/12/159 110/118/159 31/116/159
f 30/115/160 109/117/160 35/24/160
f 109/117/161 34/87/161 35/24/161
f 31/116/162 110/118/162 109/117/162
f 110/118/163 111/119/163 109/117/163
f 109/117/164 111/119/164 34/87/164
f 111/119/165 33/88/165 34/87/165
f 32/12/166 26/11/166 110/118/166
f 26/11/167 25/120/167 110/118/167
f 110/118/168 25/120/168 111/119/168
f 25/120/169 24/121/169 111/119/169
f 111/119/170 24/121/170 33/88/170
f 24/121/171 4/20/171 33/88/171
f 24/122/172 29/21/172 4/20/172
f 25/123/173 112/124/173 24/122/173
f 26/9/174 113/125/174 25/123/174
f 24/122/175 112/124/175 29/21/175
f 112/124/176 28/95/176 29/21/176
f 25/123/177 113/125/177 112/124/177
f 113/125/178 114/126/178 112/124/178
f 112/124/179 114/126/179 28/95/179
f 114/126/180 27/96/180 28/95/180
f 26/9/181 11/8/181 113/125/181
f 11/8/182 10/127/182 113/125/182
f 113/125/183 10/127/183 114/126/183
f 10/127/184 9/128/184 114/126/184
f 114/126/185 9/128/185 27/96/185
f 9/128/186 3/97/186 27/96/186
f 18/107/187 23/129/187 6/26/187
f 19/106/188 115/130/188 18/107/188
f 20/6/189 116/131/189 19/106/189
f 18/107/190 115/130/190 23/129/190
f 115/130/191 22/132/191 23/129/191
f 19/106/192 116/131/192 115/130/192
f 116/131/193 117/133/193 115/130/193
f 115/130/194 117/133/194 22/132/194
f 117/133/195 21/134/195 22/132/195
f 20/6/196 14/5/196 116/131/196
f 14/5/197 13/135/197 116/131/197
f 116/131/198 13/135/198 117/133/198
f 13/135/199 12/136/199 117/133/199
f 117/133/200 12/136/200 21/134/200
f 12/136/201 1/137/201 21/134/201
f 9/138/202 17/18/202 3/17/202
f 10/139/203 118/140/203 9/138/203
f 11/3/204 119/141/204 10/139/204
f 9/138/205 118/140/205 17/18/205
f 118/140/206 16/101/206 17/18/206
f 10/139/207 119/141/207 118/140/207
f 119/141/208 120/142/208 118/140/208
f 118/140/209 120/142/209 16/101/209
f 120/142/210 15/102/210 16/101/210
f 11/3/211 12/2/211 119/141/211
f 12/2/212 13/143/212 119/141/212
f 119/141/213 13/143/213 120/142/213
f 13/143/214 14/144/214 120/142/214
f 120/142/215 14/144/215 15/102/215
f 14/144/216 2/4/216 15/102/216
usemtl Material.002
f 63/79/217 68/54/217 125/145/217 138/146/217
f 64/51/218 63/79/218 138/146/218 139/147/218
f 74/36/219 76/42/219 174/148/219 151/149/219
f 56/91/220 55/92/220 136/150/220 121/151/220
f 85/63/221 51/65/221 135/152/221 181/153/221
f 51/65/222 56/91/222 121/151/222 135/152/222
f 77/44/223 75/46/223 152/154/223 173/155/223
f 86/66/224 87/69/224 183/156/224 184/157/224
f 73/38/225 78/49/225 175/158/225 148/159/225
f 79/50/226 64/51/226 139/147/226 177/160/226
f 80/53/227 82/56/227 179/161/227 178/162/227
f 87/69/228 72/40/228 140/163/228 183/156/228
f 62/61/229 83/60/229 180/164/229 123/165/229
f 82/56/230 57/58/230 137/166/230 179/161/230
f 57/58/231 62/61/231 123/165/231 137/166/231
f 75/39/232 73/38/232 148/159/232 152/167/232
f 72/40/233 74/41/233 151/168/233 140/163/233
f 55/67/234 86/66/234 184/157/234 136/169/234
f 76/42/235 77/44/235 173/155/235 174/148/235
f 68/54/236 80/53/236 178/162/236 125/145/236
f 78/49/237 79/50/237 177/160/237 175/158/237
f 83/60/238 85/63/238 181/153/238 180/164/238
f 122/170/239 127/171/239 132/172/239
f 124/173/240 128/174/240 133/175/240
f 126/176/241 129/177/241 134/178/241
f 130/179/242 158/180/242 131/181/242
f 153/182/243 160/183/243 130/179/243
f 152/167/244 162/184/244 153/182/244
f 130/179/245 160/183/245 158/180/245
f 160/183/246 159/185/246 158/180/246
f 153/182/247 162/184/247 160/183/247
f 162/184/248 161/186/248 160/183/248
f 160/183/249 161/186/249 159/185/249
f 161/186/250 134/187/250 159/185/250
f 152/167/251 148/159/251 162/184/251
f 148/159/252 147/188/252 162/184/252
f 162/184/253 147/188/253 161/186/253
f 147/188/254 146/189/254 161/186/254
f 161/186/255 146/189/255 134/187/255
f 146/189/256 126/176/256 134/187/256
f 158/190/257 156/191/257 131/192/257
f 159/193/258 163/194/258 158/190/258
f 134/178/259 165/195/259 159/193/259
f 158/190/260 163/194/260 156/191/260
f 163/194/261 157/196/261 156/191/261
f 159/193/262 165/195/262 163/194/262
f 165/195/263 164/197/263 163/194/263
f 163/194/264 164/197/264 157/196/264
f 164/197/265 133/198/265 157/196/265
f 134/178/266 129/177/266 165/195/266
f 129/177/267 145/199/267 165/195/267
f 165/195/268 145/199/268 164/197/268
f 145/199/269 144/200/269 164/197/269
f 164/197/270 144/200/270 133/198/270
f 144/200/271 124/173/271 133/198/271
f 156/201/272 154/202/272 131/203/272
f 157/204/273 166/205/273 156/201/273
f 133/175/274 168/206/274 157/204/274
f 156/201/275 166/205/275 154/202/275
f 166/205/276 155/207/276 154/202/276
f 157/204/277 168/206/277 166/205/277
f 168/206/278 167/208/278 166/205/278
f 166/205/279 167/208/279 155/207/279
f 167/208/280 132/209/280 155/207/280
f 133/175/281 128/174/281 168/206/281
f 128/174/282 143/210/282 168/206/282
f 168/206/283 143/210/283 167/208/283
f 143/210/284 142/211/284 167/208/284
f 167/208/285 142/211/285 132/209/285
f 142/211/286 122/212/286 132/209/286
f 154/213/287 149/214/287 131/215/287
f 155/216/288 169/217/288 154/213/288
f 132/172/289 171/218/289 155/216/289
f 154/213/290 169/217/290 149/214/290
f 169/217/291 150/219/291 149/214/291
f 155/216/292 171/218/292 169/217/292
f 171/218/293 170/220/293 169/217/293
f 169/217/294 170/220/294 150/219/294
f 170/220/295 151/168/295 150/219/295
f 132/172/296 127/171/296 171/218/296
f 127/171/297 141/221/297 171/218/297
f 171/218/298 141/221/298 170/220/298
f 141/221/299 140/163/299 170/220/299
f 170/220/300 140/163/300 151/168/300
f 149/222/301 130/223/301 131/224/301
f 150/225/302 172/226/302 149/222/302
f 151/149/303 174/148/303 150/225/303
f 149/222/304 172/226/304 130/223/304
f 172/226/305 153/227/305 130/223/305
f 150/225/306 174/148/306 172/226/306
f 174/148/307 173/155/307 172/226/307
f 172/226/308 173/155/308 153/227/308
f 173/155/309 152/154/309 153/227/309
f 175/158/310 147/188/310 148/159/310
f 177/160/311 176/228/311 175/158/311
f 175/158/312 176/228/312 147/188/312
f 176/228/313 146/189/313 147/188/313
f 177/160/314 139/147/314 176/228/314
f 139/147/315 138/146/315 176/228/315
f 176/228/316 138/146/316 146/189/316
f 138/146/317 126/176/317 146/189/317
f 125/145/318 129/177/318 126/176/318
f 125/145/319 178/162/319 129/177/319
f 178/162/320 145/199/320 129/177/320
f 178/162/321 179/161/321 145/199/321
f 179/161/322 144/200/322 145/199/322
f 179/161/323 137/166/323 144/200/323
f 137/166/324 124/173/324 144/200/324
f 123/165/325 128/174/325 124/173/325
f 123/165/326 180/164/326 128/174/326
f 180/164/327 143/210/327 128/174/327
f 180/164/328 181/153/328 143/210/328
f 181/153/329 142/211/329 143/210/329
f 181/153/330 135/152/330 142/211/330
f 135/152/331 122/212/331 142/211/331
f 121/229/332 127/171/332 122/170/332
f 136/169/333 182/230/333 121/229/333
f 121/229/334 182/230/334 127/171/334
f 182/230/335 141/221/335 127/171/335
f 136/169/336 184/157/336 182/230/336
f 184/157/337 183/156/337 182/230/337
f 182/230/338 183/156/338 141/221/338
f 183/156/339 140/163/339 141/221/339
f 138/146/340 125/145/340 126/176/340
f 137/166/341 123/165/341 124/173/341
f 135/152/342 121/151/342 122/212/342
