# Blender v3.2.1 OBJ File: 'footballer1.blend'
# www.blender.org
mtllib footballer1.mtl
o Icosphere
v 0.000000 -1.000000 0.000000
v -0.845696 -0.447220 -0.291191
v 0.015606 -0.447220 -0.894288
v 0.855344 -0.447216 -0.261505
v 0.513017 -0.447220 0.732672
v -0.538282 -0.447220 0.714316
v -0.513017 0.447220 -0.732672
v 0.538282 0.447220 -0.714316
v 0.013146 -0.657519 -0.753323
v 0.009173 -0.850654 -0.525645
v 0.004382 -0.967950 -0.251106
v -0.237462 -0.967950 -0.081763
v -0.497084 -0.850654 -0.171157
v -0.712391 -0.657519 -0.245292
v -0.708011 -0.502302 -0.496400
v -0.487915 -0.525738 -0.696806
v -0.224319 -0.502302 -0.835089
v -0.690898 -0.502301 0.519956
v -0.813479 -0.525736 0.248705
v -0.863536 -0.502301 -0.044718
v -0.151144 -0.967950 0.200572
v -0.316392 -0.850654 0.419861
v -0.453434 -0.657519 0.601720
v 0.720520 -0.657515 -0.220285
v 0.502758 -0.850652 -0.153708
v 0.240173 -0.967949 -0.073428
v 0.253321 -0.502302 -0.826754
v 0.511934 -0.525736 -0.679356
v 0.724904 -0.502299 -0.471392
v 0.432151 -0.657519 0.617182
v 0.301541 -0.850654 0.430650
v 0.144049 -0.967950 0.205726
v 0.864572 -0.502299 -0.014559
v 0.804304 -0.525736 0.276942
v 0.672327 -0.502302 0.543755
v 0.281007 -0.502302 0.817758
v -0.014851 -0.525738 0.850517
v -0.309384 -0.502302 0.807449
v -0.999848 -0.000000 -0.017448
v -0.952568 -0.251151 -0.171863
v -0.693610 -0.251151 0.675150
v -0.819155 0.000000 0.573573
v -0.427771 0.251152 -0.868294
v -0.292372 -0.000000 -0.956305
v -0.130905 -0.251152 -0.959055
v -0.856447 -0.251152 -0.451022
v -0.798636 0.000000 -0.601815
v -0.669619 0.251152 -0.698951
v 0.693610 0.251151 -0.675150
v 0.819155 -0.000000 -0.573573
v 0.871666 -0.251149 -0.420858
v 0.164291 -0.251152 -0.953903
v 0.325569 0.000000 -0.945518
v 0.457819 0.251152 -0.852833
v 0.798636 -0.000000 0.601815
v 0.669619 -0.251152 0.698951
v 0.957985 -0.251149 -0.138522
v 0.999848 0.000000 0.017448
v -0.164291 0.251152 0.953903
v -0.325569 -0.000000 0.945518
v -0.457819 -0.251152 0.852833
v 0.427771 -0.251152 0.868294
v 0.292372 0.000000 0.956305
v 0.130905 0.251152 0.959055
v -0.672327 0.502302 -0.543755
v -0.281007 0.502302 -0.817758
v 0.014851 0.525738 -0.850517
v 0.309384 0.502302 -0.807449
v 0.690898 0.502301 -0.519956
v -0.432151 0.657519 -0.617182
v 0.453434 0.657519 -0.601720
v 0.174145 0.723612 -0.667876
v -0.150723 0.723612 -0.673549
v -0.601818 0.000000 0.798633
v -0.440302 0.276397 0.854247
v 0.410221 0.276397 0.869093
v 0.573576 -0.000000 0.819152
v 0.953323 0.276396 -0.121579
v 0.956305 0.000001 -0.292372
v 0.858326 0.276397 -0.432297
v 0.178969 0.276397 -0.944232
v 0.017453 -0.000001 -0.999848
v -0.145901 0.276397 -0.949904
v -0.842716 0.276396 -0.461990
v -0.945519 -0.000002 -0.325566
v -0.948500 0.276394 -0.154772
v -0.017453 -0.000000 0.999848
v -0.178969 -0.276398 0.944232
v 0.145901 -0.276398 0.949904
v 0.945519 -0.000000 0.325566
v 0.842715 -0.276397 0.461992
v 0.948499 -0.276396 0.154773
v 0.601817 0.000000 -0.798634
v 0.699794 -0.276396 -0.658706
v 0.440300 -0.276397 -0.854248
v -0.573577 0.000000 -0.819152
v -0.410222 -0.276398 -0.869093
v -0.676380 -0.276398 -0.682726
v -0.956305 0.000000 0.292372
v -0.953323 -0.276396 0.121579
v -0.858327 -0.276396 0.432297
v -0.174144 -0.723612 0.667877
v -0.007806 -0.894429 0.447142
v 0.150724 -0.723611 0.673550
v 0.581377 -0.723612 0.372004
v 0.422846 -0.894429 0.145596
v 0.687162 -0.723609 0.064787
v 0.533455 -0.723609 -0.437968
v 0.269138 -0.894428 -0.357159
v 0.273961 -0.723610 -0.633509
v -0.594008 -0.723611 0.351486
v -0.689004 -0.723610 0.040769
v -0.427670 -0.894428 0.130751
v -0.251690 -0.723612 -0.642681
v -0.256512 -0.894429 -0.366331
v -0.517846 -0.723611 -0.456315
v -0.899281 0.294916 0.429915
v -0.882440 0.497210 0.265500
v 0.982903 0.294917 0.173011
v 0.872637 0.497214 0.296129
v 0.135139 0.294918 0.985209
v -0.016026 0.497215 0.918384
v 0.891043 0.554045 0.041827
v 0.231520 0.554047 0.857305
v -0.747856 0.554043 0.482055
v -0.247727 1.034486 0.071449
v 0.000075 1.067555 -0.004312
v 0.735097 0.714194 0.248772
v -0.013488 0.714195 0.772942
v -0.988342 0.294916 0.138610
v -1.031534 0.035788 -0.022314
v -0.845101 0.035788 0.587481
v -0.823931 0.035788 -0.625245
v -0.690816 0.294919 -0.725467
v 0.715719 0.294917 -0.700910
v 0.845252 0.035788 -0.596105
v 0.883729 0.294918 0.461037
v 0.824081 0.035788 0.616620
v 1.031685 0.035788 0.013690
v -0.169435 0.294919 0.979893
v -0.891961 0.554043 0.010709
v -0.829779 0.578225 -0.290052
v -0.693610 0.554046 -0.565340
v 0.712921 0.554045 -0.540786
v 0.839395 0.578225 -0.260918
v 0.730577 0.554046 0.507857
v 0.503489 0.578227 0.714629
v -0.261293 0.554046 0.848705
v -0.528121 0.578225 0.696625
v -0.148550 1.034487 -0.216573
v -0.311045 0.913465 -0.448643
v -0.445804 0.714195 -0.641100
v -0.743333 0.714190 0.222971
v -0.518654 0.913462 0.154279
v 0.156020 1.034487 -0.211256
v 0.326518 0.913465 -0.437511
v 0.467913 0.714194 -0.625147
v 0.245081 1.034487 0.080048
v 0.512950 0.913465 0.172282
v -0.004446 1.034487 0.254771
v -0.009389 0.913465 0.538031
v -0.277612 0.958631 0.364191
v -0.282588 0.782387 0.649320
v -0.550324 0.782385 0.447569
v 0.264734 0.958631 0.373655
v 0.534370 0.782387 0.466498
v 0.259759 0.782387 0.658784
v 0.441330 0.958630 -0.139217
v 0.612952 0.782386 -0.366964
v 0.710966 0.782386 -0.046377
v 0.008131 0.958631 -0.465656
v -0.155436 0.782387 -0.699257
v 0.179752 0.782387 -0.693405
v -0.436202 0.958631 -0.154534
v -0.708915 0.782385 -0.071159
v -0.599769 0.782387 -0.388135
v -0.721950 0.320965 0.675317
v -0.454214 0.320966 0.877072
v -0.620861 0.035788 0.819691
v 0.423328 0.320966 0.892389
v 0.697941 0.320966 0.700102
v 0.591872 0.035788 0.840862
v 0.983682 0.320964 -0.129754
v 0.885668 0.320965 -0.450342
v -0.869411 0.320965 -0.480978
v -0.978555 0.320963 -0.164000
v 0.975631 0.035788 0.331596
v -0.986608 0.035788 0.297347
vt 0.181819 0.000000
vt 0.204546 0.039365
vt 0.159092 0.039365
vt 0.272728 0.157461
vt 0.295455 0.118096
vt 0.318182 0.157461
vt 0.909091 0.000000
vt 0.931818 0.039365
vt 0.886364 0.039365
vt 0.727273 0.000000
vt 0.750000 0.039365
vt 0.704546 0.039365
vt 0.545455 0.000000
vt 0.568182 0.039365
vt 0.522728 0.039365
vt 0.295455 0.196826
vt 0.090910 0.157461
vt 0.136364 0.157461
vt 0.113637 0.196826
vt 0.818182 0.157461
vt 0.863636 0.157461
vt 0.840909 0.196826
vt 0.636364 0.157461
vt 0.681818 0.157461
vt 0.659091 0.196826
vt 0.454546 0.157461
vt 0.500000 0.157461
vt 0.477273 0.196826
vt 0.250001 0.196826
vt 0.068182 0.196826
vt 0.795455 0.196826
vt 0.613637 0.196826
vt 0.431819 0.196826
vt 0.181819 0.314921
vt 0.227273 0.314921
vt 0.204546 0.354286
vt 0.000000 0.314921
vt 0.045455 0.314921
vt 0.022727 0.354286
vt 0.863636 0.314921
vt 0.909091 0.314921
vt 0.886364 0.354286
vt 0.068182 0.354286
vt 0.090909 0.314921
vt 0.113637 0.354286
vt 0.136364 0.314921
vt 0.159092 0.354286
vt 0.454546 0.236191
vt 0.409091 0.236191
vt 0.500000 0.236191
vt 0.477273 0.275556
vt 0.522728 0.275556
vt 0.590909 0.236191
vt 0.613637 0.275556
vt 0.568182 0.275556
vt 0.636364 0.236191
vt 0.681818 0.236191
vt 0.818182 0.236191
vt 0.772727 0.236191
vt 0.795455 0.275556
vt 0.840909 0.275556
vt 0.863636 0.236191
vt 0.886364 0.275556
vt 0.022727 0.275556
vt 0.045455 0.236191
vt 0.068182 0.275556
vt 0.090910 0.236191
vt 0.113637 0.275556
vt 0.136364 0.236191
vt 0.159092 0.275556
vt 0.204546 0.275556
vt 0.272728 0.236191
vt 0.227273 0.236191
vt 0.250001 0.275556
vt 0.295455 0.275556
vt 0.318182 0.236191
vt 0.545455 0.236191
vt 0.522728 0.196826
vt 0.568182 0.196826
vt 0.545455 0.157461
vt 0.590909 0.157461
vt 0.704546 0.196826
vt 0.727273 0.236191
vt 0.750000 0.196826
vt 0.727273 0.157461
vt 0.772727 0.157461
vt 0.931818 0.275556
vt 0.909091 0.236191
vt 0.886364 0.196826
vt 0.954545 0.236191
vt 0.931818 0.196826
vt 0.977273 0.196826
vt 0.909091 0.157461
vt 0.954545 0.157461
vt 1.000000 0.157461
vt 0.181819 0.236191
vt 0.159092 0.196826
vt 0.204546 0.196826
vt 0.181819 0.157461
vt 0.227274 0.157461
vt 0.340910 0.196826
vt 0.363637 0.236191
vt 0.386364 0.196826
vt 0.363637 0.157461
vt 0.409092 0.157461
vt 0.477273 0.118096
vt 0.500000 0.078731
vt 0.522728 0.118096
vt 0.545455 0.078731
vt 0.568182 0.118096
vt 0.590909 0.078731
vt 0.613637 0.118096
vt 0.659091 0.118096
vt 0.681818 0.078731
vt 0.704546 0.118096
vt 0.727273 0.078731
vt 0.750000 0.118096
vt 0.772727 0.078731
vt 0.795455 0.118096
vt 0.840909 0.118096
vt 0.863636 0.078731
vt 0.886364 0.118096
vt 0.909091 0.078731
vt 0.931818 0.118096
vt 0.954545 0.078731
vt 0.977273 0.118096
vt 0.431819 0.118096
vt 0.386364 0.118096
vt 0.340910 0.118096
vt 0.409091 0.078731
vt 0.363637 0.078730
vt 0.386364 0.039365
vt 0.318182 0.078731
vt 0.340910 0.039365
vt 0.363637 0.000000
vt 0.113637 0.118096
vt 0.136365 0.078731
vt 0.159092 0.118096
vt 0.181819 0.078731
vt 0.204546 0.118096
vt 0.227273 0.078731
vt 0.250001 0.118096
vt 0.113637 0.354286
vt 0.068182 0.354286
vt 0.318182 0.236191
vt 0.295455 0.275556
vt 0.204546 0.275556
vt 0.227273 0.314921
vt 0.772727 0.236191
vt 0.727273 0.236191
vt 0.477273 0.275556
vt 0.454546 0.236191
vt 0.022727 0.354286
vt 0.636364 0.236191
vt 0.613637 0.275556
vt 0.159092 0.354286
vt 0.886364 0.275556
vt 0.863636 0.236191
vt 0.681818 0.236191
vt 0.568182 0.275556
vt 0.227273 0.236191
vt 0.840909 0.275556
vt 0.795455 0.275556
vt 0.204546 0.354286
vt 0.522728 0.275556
vt 0.863636 0.314921
vt 0.363637 0.236191
vt 0.409091 0.236191
vt 0.250001 0.275556
vt 0.886364 0.354286
vt 0.727273 0.314921
vt 0.772727 0.314921
vt 0.750000 0.354286
vt 0.545455 0.314921
vt 0.590909 0.314921
vt 0.568182 0.354286
vt 0.363637 0.314921
vt 0.409091 0.314921
vt 0.386364 0.354286
vt 0.431819 0.433017
vt 0.477273 0.433017
vt 0.454546 0.472382
vt 0.409091 0.393651
vt 0.454546 0.393651
vt 0.431819 0.354286
vt 0.500000 0.393651
vt 0.477273 0.354286
vt 0.522728 0.354286
vt 0.454546 0.314921
vt 0.500000 0.314921
vt 0.613637 0.433017
vt 0.659091 0.433017
vt 0.636364 0.472382
vt 0.590909 0.393651
vt 0.636364 0.393651
vt 0.613637 0.354286
vt 0.681818 0.393651
vt 0.659091 0.354286
vt 0.704546 0.354286
vt 0.636364 0.314921
vt 0.681818 0.314921
vt 0.795455 0.433017
vt 0.840909 0.433017
vt 0.818182 0.472382
vt 0.772727 0.393651
vt 0.818182 0.393651
vt 0.795455 0.354286
vt 0.863636 0.393651
vt 0.840909 0.354286
vt 0.818182 0.314921
vt 0.068182 0.433017
vt 0.113637 0.433017
vt 0.090910 0.472382
vt 0.045455 0.393651
vt 0.090910 0.393651
vt 0.136365 0.393651
vt 0.250001 0.433017
vt 0.295455 0.433017
vt 0.272728 0.472382
vt 0.227273 0.393651
vt 0.272728 0.393651
vt 0.250001 0.354286
vt 0.318182 0.393651
vt 0.295455 0.354286
vt 0.340910 0.354286
vt 0.272728 0.314921
vt 0.318182 0.314921
vt 0.386364 0.275556
vt 0.431819 0.275556
vt 0.659091 0.275556
vt 0.704546 0.275556
vt 0.750000 0.275556
vt 0.340910 0.275556
vn -0.0894 -0.9878 -0.1276
vn -0.8119 -0.5545 -0.1827
vn 0.0938 -0.9878 -0.1244
vn 0.1473 -0.9878 0.0507
vn -0.0027 -0.9878 0.1558
vn -0.9040 -0.3987 -0.1545
vn -0.1324 -0.3987 -0.9075
vn 0.8222 -0.3987 -0.4063
vn 0.6405 -0.3987 0.6564
vn -0.4263 -0.3987 0.8120
vn -0.9013 -0.3024 -0.3103
vn 0.0166 -0.3024 -0.9530
vn 0.9115 -0.3024 -0.2787
vn 0.5467 -0.3024 0.7808
vn -0.5736 -0.3024 0.7612
vn -0.5494 0.5545 -0.6250
vn 0.4246 0.5545 -0.7157
vn 0.5709 0.5545 -0.6054
vn 0.3172 0.6369 -0.7026
vn 0.1624 0.5955 -0.7868
vn 0.0129 0.6726 -0.7399
vn -0.1349 0.5955 -0.7920
vn -0.2924 0.6369 -0.7133
vn -0.3994 0.5545 -0.7301
vn -0.7171 -0.0784 0.6925
vn -0.5930 -0.1702 0.7870
vn -0.4680 -0.0784 0.8802
vn -0.4673 0.0962 0.8788
vn -0.3202 0.1745 0.9311
vn 0.2875 0.1745 0.9417
vn 0.4370 -0.0784 0.8960
vn 0.4363 0.0962 0.8946
vn 0.5652 -0.1702 0.8072
vn 0.6925 -0.0784 0.7171
vn 0.9872 -0.0784 -0.1387
vn 0.9857 0.0962 -0.1385
vn 0.9393 0.1876 -0.2872
vn 0.9424 -0.1702 -0.2881
vn 0.8960 -0.0784 -0.4370
vn 0.8946 0.0962 -0.4363
vn 0.6630 0.3987 -0.6336
vn 0.4263 0.3987 -0.8120
vn 0.3209 0.1745 -0.9309
vn 0.1731 -0.0784 -0.9818
vn 0.3203 0.3485 -0.8809
vn 0.1641 0.4399 -0.8829
vn 0.1728 0.0962 -0.9802
vn 0.0171 0.1876 -0.9821
vn 0.0163 0.3611 -0.9324
vn -0.1332 0.4399 -0.8881
vn 0.0172 -0.1702 -0.9853
vn -0.1387 -0.0784 -0.9872
vn -0.1385 0.0962 -0.9857
vn -0.2882 0.1745 -0.9415
vn -0.2893 0.3485 -0.8915
vn -0.3977 0.3987 -0.8264
vn -0.6405 0.3987 -0.6564
vn -0.8802 -0.0784 -0.4680
vn -0.8789 0.0962 -0.4673
vn -0.9287 0.1876 -0.3198
vn -0.9317 -0.1702 -0.3208
vn -0.9818 -0.0784 -0.1731
vn -0.9802 0.0962 -0.1728
vn -0.1731 0.0784 0.9818
vn -0.3209 -0.1745 0.9309
vn -0.0172 0.1702 0.9853
vn 0.1387 0.0784 0.9872
vn -0.1728 -0.0962 0.9802
vn -0.0171 -0.1876 0.9821
vn 0.1385 -0.0962 0.9857
vn 0.2882 -0.1745 0.9415
vn -0.3203 -0.3485 0.8809
vn -0.1641 -0.4399 0.8829
vn -0.0163 -0.3611 0.9324
vn 0.1332 -0.4399 0.8881
vn 0.2893 -0.3485 0.8915
vn 0.3977 -0.3987 0.8264
vn 0.7862 -0.1745 0.5929
vn 0.8788 -0.0962 0.4673
vn 0.9287 -0.1876 0.3198
vn 0.9802 -0.0962 0.1728
vn 0.9845 -0.1745 0.0168
vn 0.7388 -0.3485 0.5768
vn 0.7890 -0.4399 0.4289
vn 0.8817 -0.3611 0.3036
vn 0.8858 -0.4399 0.1478
vn 0.9373 -0.3485 0.0003
vn 0.9088 -0.3987 -0.1229
vn 0.5736 0.3024 -0.7612
vn 0.7171 0.0784 -0.6925
vn 0.8068 -0.1745 -0.5645
vn 0.5930 0.1702 -0.7870
vn 0.4680 0.0784 -0.8802
vn 0.7160 -0.0962 -0.6914
vn 0.5911 -0.1876 -0.7845
vn 0.4673 -0.0962 -0.8788
vn 0.3202 -0.1745 -0.9311
vn 0.7769 -0.3485 -0.5244
vn 0.6517 -0.4399 -0.6179
vn 0.5612 -0.3611 -0.7447
vn 0.4143 -0.4399 -0.7968
vn 0.2900 -0.3485 -0.8913
vn 0.1640 -0.3987 -0.9023
vn -0.5467 0.3024 -0.7808
vn -0.4370 0.0784 -0.8960
vn -0.2875 -0.1745 -0.9417
vn -0.5652 0.1702 -0.8072
vn -0.6925 0.0784 -0.7171
vn -0.4363 -0.0962 -0.8946
vn -0.5634 -0.1876 -0.8046
vn -0.6914 -0.0962 -0.7160
vn -0.7866 -0.1745 -0.5923
vn -0.2587 -0.3485 -0.9009
vn -0.3862 -0.4399 -0.8108
vn -0.5349 -0.3611 -0.7639
vn -0.6298 -0.4399 -0.6402
vn -0.7581 -0.3485 -0.5512
vn -0.8075 -0.3987 -0.4348
vn -0.9845 -0.1745 -0.0175
vn -0.9857 -0.0962 0.1385
vn -0.9393 -0.1876 0.2872
vn -0.8946 -0.0962 0.4363
vn -0.8064 -0.1745 0.5651
vn -0.9368 -0.3485 -0.0324
vn -0.8904 -0.4399 0.1168
vn -0.8918 -0.3611 0.2726
vn -0.8035 -0.4399 0.4011
vn -0.7585 -0.3485 0.5507
vn -0.6630 -0.3987 0.6336
vn -0.4246 -0.5545 0.7157
vn -0.3146 -0.7594 0.5695
vn -0.1624 -0.9158 0.3675
vn -0.3172 -0.6369 0.7026
vn -0.1624 -0.5955 0.7868
vn -0.1649 -0.8363 0.5229
vn -0.0106 -0.7947 0.6070
vn -0.0129 -0.6726 0.7399
vn 0.1349 -0.5955 0.7920
vn -0.0050 -0.9575 0.2884
vn 0.1495 -0.9158 0.3729
vn 0.1465 -0.8363 0.5284
vn 0.2945 -0.7594 0.5801
vn 0.2924 -0.6369 0.7133
vn 0.3994 -0.5545 0.7301
vn 0.5494 -0.5545 0.6250
vn 0.4444 -0.7594 0.4752
vn 0.2993 -0.9158 0.2680
vn 0.5702 -0.6369 0.5188
vn 0.6981 -0.5955 0.3976
vn 0.4464 -0.8363 0.3184
vn 0.5740 -0.7947 0.1976
vn 0.6997 -0.6726 0.2409
vn 0.7949 -0.5955 0.1165
vn 0.2728 -0.9575 0.0939
vn 0.4008 -0.9158 -0.0269
vn 0.5478 -0.8363 0.0239
vn 0.6427 -0.7594 -0.1009
vn 0.7687 -0.6369 -0.0577
vn 0.8178 -0.5545 -0.1542
vn 0.7642 -0.5545 -0.3294
vn 0.5892 -0.7594 -0.2758
vn 0.3474 -0.9158 -0.2018
vn 0.6696 -0.6369 -0.3820
vn 0.5939 -0.5955 -0.5411
vn 0.4407 -0.8363 -0.3262
vn 0.3653 -0.7947 -0.4848
vn 0.4454 -0.6726 -0.5910
vn 0.3564 -0.5955 -0.7200
vn 0.1736 -0.9575 -0.2304
vn 0.0983 -0.9158 -0.3895
vn 0.1920 -0.8363 -0.5136
vn 0.1027 -0.7594 -0.6424
vn 0.1827 -0.6369 -0.7490
vn 0.1060 -0.5545 -0.8254
vn -0.5709 -0.5545 0.6054
vn -0.7115 -0.5955 0.3730
vn -0.7985 -0.5955 0.0887
vn -0.5880 -0.6369 0.4986
vn -0.4607 -0.7594 0.4594
vn -0.7077 -0.6726 0.2164
vn -0.5805 -0.7947 0.1775
vn -0.4572 -0.8363 0.3026
vn -0.3085 -0.9158 0.2574
vn -0.7663 -0.6369 -0.0845
vn -0.6388 -0.7594 -0.1232
vn -0.5483 -0.8363 0.0048
vn -0.3997 -0.9158 -0.0409
vn -0.2759 -0.9575 0.0843
vn -0.1490 -0.9878 0.0456
vn -0.0771 -0.5545 -0.8286
vn -0.0802 -0.7594 -0.6456
vn -0.0846 -0.9158 -0.3927
vn -0.1564 -0.6369 -0.7549
vn -0.3311 -0.5955 -0.7320
vn -0.1740 -0.8363 -0.5200
vn -0.3482 -0.7947 -0.4973
vn -0.4245 -0.6726 -0.6062
vn -0.5746 -0.5955 -0.5615
vn -0.1655 -0.9575 -0.2363
vn -0.3401 -0.9158 -0.2138
vn -0.4291 -0.8363 -0.3413
vn -0.5793 -0.7594 -0.2962
vn -0.6559 -0.6369 -0.4052
vn -0.7522 -0.5545 -0.3559
vn 0.0160 -0.3996 -0.9165
vn -0.2952 -0.3806 -0.8764
vn 0.9083 0.2270 -0.3514
vn 0.7475 -0.6511 0.1318
vn 0.3061 -0.3565 0.8827
vn 0.1189 -0.4051 -0.9065
vn -0.3368 -0.3565 0.8715
vn -0.0872 -0.4051 -0.9101
vn -0.1619 -0.4385 -0.8840
vn 0.5447 -0.6206 0.5640
vn 0.3051 -0.5101 0.8042
vn 0.1927 -0.4385 -0.8778
vn 0.7816 -0.5762 -0.2390
vn -0.0262 -0.3940 -0.9187
vn -0.3330 -0.5101 0.7931
vn -0.8955 0.2270 -0.3829
vn -0.0150 -0.5118 0.8589
vn -0.7516 -0.6511 0.1056
vn 0.3256 -0.3806 -0.8655
vn -0.5640 -0.6206 0.5447
vn -0.7728 -0.5762 -0.2661
vn -0.6943 -0.6350 0.3386
vn 0.0583 -0.3940 -0.9172
vn -0.8510 -0.3387 0.4013
vn 0.8365 -0.3387 0.4308
vn 0.6821 -0.6350 0.3627
vn 0.8119 0.5545 0.1827
vn 0.0771 0.5545 0.8286
vn -0.7642 0.5545 0.3294
vn -0.0938 0.9878 0.1244
vn -0.3474 0.9158 0.2018
vn -0.5892 0.7594 0.2758
vn -0.1736 0.9575 0.2304
vn -0.0983 0.9158 0.3895
vn -0.4407 0.8363 0.3262
vn -0.3653 0.7947 0.4848
vn -0.1920 0.8363 0.5136
vn -0.1027 0.7594 0.6424
vn -0.6696 0.6369 0.3820
vn -0.5939 0.5955 0.5411
vn -0.4454 0.6726 0.5910
vn -0.3564 0.5955 0.7200
vn -0.1827 0.6369 0.7490
vn -0.1060 0.5545 0.8254
vn 0.0894 0.9878 0.1276
vn 0.0846 0.9158 0.3927
vn 0.0802 0.7594 0.6456
vn 0.1655 0.9575 0.2363
vn 0.3401 0.9158 0.2138
vn 0.1740 0.8363 0.5200
vn 0.3482 0.7947 0.4973
vn 0.4291 0.8363 0.3413
vn 0.5793 0.7594 0.2962
vn 0.1564 0.6369 0.7549
vn 0.3311 0.5955 0.7320
vn 0.4245 0.6726 0.6062
vn 0.5746 0.5955 0.5615
vn 0.6559 0.6369 0.4052
vn 0.7522 0.5545 0.3559
vn 0.1490 0.9878 -0.0456
vn 0.3997 0.9158 0.0409
vn 0.6388 0.7594 0.1232
vn 0.2759 0.9575 -0.0843
vn 0.3085 0.9158 -0.2574
vn 0.5483 0.8363 -0.0048
vn 0.5805 0.7947 -0.1775
vn 0.4572 0.8363 -0.3026
vn 0.4607 0.7594 -0.4594
vn 0.7663 0.6369 0.0845
vn 0.7985 0.5955 -0.0887
vn 0.7077 0.6726 -0.2164
vn 0.7115 0.5955 -0.3730
vn 0.5880 0.6369 -0.4986
vn 0.0027 0.9878 -0.1558
vn 0.1624 0.9158 -0.3675
vn 0.3146 0.7594 -0.5695
vn 0.0050 0.9575 -0.2884
vn -0.1495 0.9158 -0.3729
vn 0.1649 0.8363 -0.5229
vn 0.0106 0.7947 -0.6070
vn -0.1465 0.8363 -0.5284
vn -0.2945 0.7594 -0.5801
vn -0.1473 0.9878 -0.0507
vn -0.2993 0.9158 -0.2680
vn -0.4444 0.7594 -0.4752
vn -0.2728 0.9575 -0.0939
vn -0.4008 0.9158 0.0269
vn -0.4464 0.8363 -0.3184
vn -0.5740 0.7947 -0.1976
vn -0.5478 0.8363 -0.0239
vn -0.6427 0.7594 0.1009
vn -0.5702 0.6369 -0.5188
vn -0.6981 0.5955 -0.3976
vn -0.6997 0.6726 -0.2409
vn -0.7949 0.5955 -0.1165
vn -0.7687 0.6369 0.0577
vn -0.8178 0.5545 0.1542
vn -0.8222 0.3987 0.4063
vn -0.8068 0.1745 0.5645
vn -0.7769 0.3485 0.5244
vn -0.6517 0.4399 0.6179
vn -0.7160 0.0962 0.6914
vn -0.5911 0.1876 0.7845
vn -0.5612 0.3611 0.7447
vn -0.4143 0.4399 0.7968
vn -0.2900 0.3485 0.8913
vn -0.1640 0.3987 0.9023
vn 0.1324 0.3987 0.9075
vn 0.2587 0.3485 0.9009
vn 0.3862 0.4399 0.8108
vn 0.5634 0.1876 0.8046
vn 0.5349 0.3611 0.7639
vn 0.6298 0.4399 0.6402
vn 0.6914 0.0962 0.7160
vn 0.7866 0.1745 0.5923
vn 0.7581 0.3485 0.5512
vn 0.8075 0.3987 0.4348
vn 0.9040 0.3987 0.1545
vn 0.9845 0.1745 0.0175
vn 0.9368 0.3485 0.0324
vn 0.8904 0.4399 -0.1168
vn 0.8918 0.3611 -0.2726
vn 0.8035 0.4399 -0.4011
vn 0.8064 0.1745 -0.5651
vn 0.7585 0.3485 -0.5507
vn -0.7862 0.1745 -0.5929
vn -0.7388 0.3485 -0.5768
vn -0.7890 0.4399 -0.4289
vn -0.8817 0.3611 -0.3036
vn -0.8858 0.4399 -0.1478
vn -0.9845 0.1745 -0.0168
vn -0.9373 0.3485 -0.0003
vn -0.9088 0.3987 0.1229
vn -0.0166 0.3024 0.9530
vn 0.9013 0.3024 0.3103
vn 0.8802 0.0784 0.4680
vn 0.9317 0.1702 0.3208
vn 0.9818 0.0784 0.1731
vn -0.9115 0.3024 0.2787
vn -0.9872 0.0784 0.1387
vn -0.9424 0.1702 0.2881
vn -0.8960 0.0784 0.4370
usemtl Material.001
s off
f 1/1/1 12/2/1 11/3/1
f 2/4/2 14/5/2 20/6/2
f 1/7/3 11/8/3 26/9/3
f 1/10/4 26/11/4 32/12/4
f 1/13/5 32/14/5 21/15/5
f 2/4/6 20/6/6 40/16/6
f 3/17/7 17/18/7 45/19/7
f 4/20/8 29/21/8 51/22/8
f 5/23/9 35/24/9 56/25/9
f 6/26/10 38/27/10 61/28/10
f 2/4/11 40/16/11 46/29/11
f 3/17/12 45/19/12 52/30/12
f 4/20/13 51/22/13 57/31/13
f 5/23/14 56/25/14 62/32/14
f 6/26/15 61/28/15 41/33/15
f 7/34/16 65/35/16 70/36/16
f 8/37/17 68/38/17 71/39/17
f 69/40/18 8/41/18 71/42/18
f 71/39/19 68/38/19 72/43/19
f 68/38/20 67/44/20 72/43/20
f 72/43/21 67/44/21 73/45/21
f 67/44/22 66/46/22 73/45/22
f 73/45/23 66/46/23 70/47/23
f 66/46/24 7/34/24 70/47/24
f 41/33/25 74/48/25 42/49/25
f 41/33/26 61/28/26 74/48/26
f 61/28/27 60/50/27 74/48/27
f 74/48/28 60/50/28 75/51/28
f 60/50/29 59/52/29 75/51/29
f 63/53/30 76/54/30 64/55/30
f 62/32/31 77/56/31 63/53/31
f 63/53/32 77/56/32 76/54/32
f 62/32/33 56/25/33 77/56/33
f 56/25/34 55/57/34 77/56/34
f 57/31/35 79/58/35 58/59/35
f 58/59/36 79/58/36 78/60/36
f 79/58/37 80/61/37 78/60/37
f 57/31/38 51/22/38 79/58/38
f 51/22/39 50/62/39 79/58/39
f 79/58/40 50/62/40 80/61/40
f 49/63/41 8/41/41 69/40/41
f 54/64/42 68/38/42 8/37/42
f 53/65/43 81/66/43 54/64/43
f 52/30/44 82/67/44 53/65/44
f 54/64/45 81/66/45 68/38/45
f 81/66/46 67/44/46 68/38/46
f 53/65/47 82/67/47 81/66/47
f 82/67/48 83/68/48 81/66/48
f 81/66/49 83/68/49 67/44/49
f 83/68/50 66/46/50 67/44/50
f 52/30/51 45/19/51 82/67/51
f 45/19/52 44/69/52 82/67/52
f 82/67/53 44/69/53 83/68/53
f 44/69/54 43/70/54 83/68/54
f 83/68/55 43/70/55 66/46/55
f 43/70/56 7/34/56 66/46/56
f 48/71/57 65/35/57 7/34/57
f 46/29/58 85/72/58 47/73/58
f 47/73/59 85/72/59 84/74/59
f 85/72/60 86/75/60 84/74/60
f 46/29/61 40/16/61 85/72/61
f 40/16/62 39/76/62 85/72/62
f 85/72/63 39/76/63 86/75/63
f 60/50/64 87/77/64 59/52/64
f 61/28/65 88/78/65 60/50/65
f 59/52/66 87/77/66 64/55/66
f 87/77/67 63/53/67 64/55/67
f 60/50/68 88/78/68 87/77/68
f 88/78/69 89/79/69 87/77/69
f 87/77/70 89/79/70 63/53/70
f 89/79/71 62/32/71 63/53/71
f 61/28/72 38/27/72 88/78/72
f 38/27/73 37/80/73 88/78/73
f 88/78/74 37/80/74 89/79/74
f 37/80/75 36/81/75 89/79/75
f 89/79/76 36/81/76 62/32/76
f 36/81/77 5/23/77 62/32/77
f 56/25/78 91/82/78 55/57/78
f 55/57/79 91/82/79 90/83/79
f 91/82/80 92/84/80 90/83/80
f 90/83/81 92/84/81 58/59/81
f 92/84/82 57/31/82 58/59/82
f 56/25/83 35/24/83 91/82/83
f 35/24/84 34/85/84 91/82/84
f 91/82/85 34/85/85 92/84/85
f 34/85/86 33/86/86 92/84/86
f 92/84/87 33/86/87 57/31/87
f 33/86/88 4/20/88 57/31/88
f 49/63/89 54/87/89 8/41/89
f 50/62/90 93/88/90 49/63/90
f 51/22/91 94/89/91 50/62/91
f 49/63/92 93/88/92 54/87/92
f 93/88/93 53/90/93 54/87/93
f 50/62/94 94/89/94 93/88/94
f 94/89/95 95/91/95 93/88/95
f 93/88/96 95/91/96 53/90/96
f 95/91/97 52/92/97 53/90/97
f 51/22/98 29/21/98 94/89/98
f 29/21/99 28/93/99 94/89/99
f 94/89/100 28/93/100 95/91/100
f 28/93/101 27/94/101 95/91/101
f 95/91/102 27/94/102 52/92/102
f 27/94/103 3/95/103 52/92/103
f 43/70/104 48/71/104 7/34/104
f 44/69/105 96/96/105 43/70/105
f 45/19/106 97/97/106 44/69/106
f 43/70/107 96/96/107 48/71/107
f 96/96/108 47/73/108 48/71/108
f 44/69/109 97/97/109 96/96/109
f 97/97/110 98/98/110 96/96/110
f 96/96/111 98/98/111 47/73/111
f 98/98/112 46/29/112 47/73/112
f 45/19/113 17/18/113 97/97/113
f 17/18/114 16/99/114 97/97/114
f 97/97/115 16/99/115 98/98/115
f 16/99/116 15/100/116 98/98/116
f 98/98/117 15/100/117 46/29/117
f 15/100/118 2/4/118 46/29/118
f 40/16/119 100/101/119 39/76/119
f 39/76/120 100/101/120 99/102/120
f 100/101/121 101/103/121 99/102/121
f 99/102/122 101/103/122 42/49/122
f 101/103/123 41/33/123 42/49/123
f 40/16/124 20/6/124 100/101/124
f 20/6/125 19/104/125 100/101/125
f 100/101/126 19/104/126 101/103/126
f 19/104/127 18/105/127 101/103/127
f 101/103/128 18/105/128 41/33/128
f 18/105/129 6/26/129 41/33/129
f 23/106/130 38/27/130 6/26/130
f 22/107/131 102/108/131 23/106/131
f 21/15/132 103/109/132 22/107/132
f 23/106/133 102/108/133 38/27/133
f 102/108/134 37/80/134 38/27/134
f 22/107/135 103/109/135 102/108/135
f 103/109/136 104/110/136 102/108/136
f 102/108/137 104/110/137 37/80/137
f 104/110/138 36/81/138 37/80/138
f 21/15/139 32/14/139 103/109/139
f 32/14/140 31/111/140 103/109/140
f 103/109/141 31/111/141 104/110/141
f 31/111/142 30/112/142 104/110/142
f 104/110/143 30/112/143 36/81/143
f 30/112/144 5/23/144 36/81/144
f 30/113/145 35/24/145 5/23/145
f 31/114/146 105/115/146 30/113/146
f 32/12/147 106/116/147 31/114/147
f 30/113/148 105/115/148 35/24/148
f 105/115/149 34/85/149 35/24/149
f 31/114/150 106/116/150 105/115/150
f 106/116/151 107/117/151 105/115/151
f 105/115/152 107/117/152 34/85/152
f 107/117/153 33/86/153 34/85/153
f 32/12/154 26/11/154 106/116/154
f 26/11/155 25/118/155 106/116/155
f 106/116/156 25/118/156 107/117/156
f 25/118/157 24/119/157 107/117/157
f 107/117/158 24/119/158 33/86/158
f 24/119/159 4/20/159 33/86/159
f 24/120/160 29/21/160 4/20/160
f 25/121/161 108/122/161 24/120/161
f 26/9/162 109/123/162 25/121/162
f 24/120/163 108/122/163 29/21/163
f 108/122/164 28/93/164 29/21/164
f 25/121/165 109/123/165 108/122/165
f 109/123/166 110/124/166 108/122/166
f 108/122/167 110/124/167 28/93/167
f 110/124/168 27/94/168 28/93/168
f 26/9/169 11/8/169 109/123/169
f 11/8/170 10/125/170 109/123/170
f 109/123/171 10/125/171 110/124/171
f 10/125/172 9/126/172 110/124/172
f 110/124/173 9/126/173 27/94/173
f 9/126/174 3/95/174 27/94/174
f 18/105/175 23/127/175 6/26/175
f 19/104/176 111/128/176 18/105/176
f 20/6/177 112/129/177 19/104/177
f 18/105/178 111/128/178 23/127/178
f 111/128/179 22/130/179 23/127/179
f 19/104/180 112/129/180 111/128/180
f 112/129/181 113/131/181 111/128/181
f 111/128/182 113/131/182 22/130/182
f 113/131/183 21/132/183 22/130/183
f 20/6/184 14/5/184 112/129/184
f 14/5/185 13/133/185 112/129/185
f 112/129/186 13/133/186 113/131/186
f 13/133/187 12/134/187 113/131/187
f 113/131/188 12/134/188 21/132/188
f 12/134/189 1/135/189 21/132/189
f 9/136/190 17/18/190 3/17/190
f 10/137/191 114/138/191 9/136/191
f 11/3/192 115/139/192 10/137/192
f 9/136/193 114/138/193 17/18/193
f 114/138/194 16/99/194 17/18/194
f 10/137/195 115/139/195 114/138/195
f 115/139/196 116/140/196 114/138/196
f 114/138/197 116/140/197 16/99/197
f 116/140/198 15/100/198 16/99/198
f 11/3/199 12/2/199 115/139/199
f 12/2/200 13/141/200 115/139/200
f 115/139/201 13/141/201 116/140/201
f 13/141/202 14/142/202 116/140/202
f 116/140/203 14/142/203 15/100/203
f 14/142/204 2/4/204 15/100/204
usemtl Material.002
f 72/43/205 73/45/205 172/143/205 173/144/205
f 86/75/206 39/76/206 131/145/206 186/146/206
f 65/35/207 48/71/207 134/147/207 143/148/207
f 90/83/208 58/59/208 139/149/208 187/150/208
f 74/48/209 75/51/209 178/151/209 179/152/209
f 71/39/210 72/43/210 173/144/210 157/153/210
f 76/54/211 77/56/211 182/154/211 180/155/211
f 73/45/212 70/47/212 152/156/212 172/143/212
f 50/62/213 49/63/213 135/157/213 136/158/213
f 77/56/214 55/57/214 138/159/214 182/154/214
f 64/55/215 76/54/215 180/155/215 121/160/215
f 48/71/216 47/73/216 133/161/216 134/147/216
f 78/60/217 80/61/217 184/162/217 183/163/217
f 70/36/218 65/35/218 143/148/218 152/164/218
f 75/51/219 59/52/219 140/165/219 178/151/219
f 49/63/220 69/40/220 144/166/220 135/157/220
f 59/52/221 64/55/221 121/160/221 140/165/221
f 39/76/222 99/102/222 188/167/222 131/145/222
f 58/59/223 78/60/223 183/163/223 139/149/223
f 42/49/224 74/48/224 179/152/224 132/168/224
f 84/74/225 86/75/225 186/146/225 185/169/225
f 99/102/226 42/49/226 132/168/226 188/167/226
f 69/40/227 71/42/227 157/170/227 144/166/227
f 47/73/228 84/74/228 185/169/228 133/161/228
f 80/61/229 50/62/229 136/158/229 184/162/229
f 55/57/230 90/83/230 187/150/230 138/159/230
f 120/171/231 123/172/231 128/173/231
f 122/174/232 124/175/232 129/176/232
f 118/177/233 125/178/233 153/179/233
f 126/180/234 160/181/234 127/182/234
f 154/183/235 162/184/235 126/180/235
f 153/179/236 164/185/236 154/183/236
f 126/180/237 162/184/237 160/181/237
f 162/184/238 161/186/238 160/181/238
f 154/183/239 164/185/239 162/184/239
f 164/185/240 163/187/240 162/184/240
f 162/184/241 163/187/241 161/186/241
f 163/187/242 129/188/242 161/186/242
f 153/179/243 125/178/243 164/185/243
f 125/178/244 149/189/244 164/185/244
f 164/185/245 149/189/245 163/187/245
f 149/189/246 148/190/246 163/187/246
f 163/187/247 148/190/247 129/188/247
f 148/190/248 122/174/248 129/188/248
f 160/191/249 158/192/249 127/193/249
f 161/194/250 165/195/250 160/191/250
f 129/176/251 167/196/251 161/194/251
f 160/191/252 165/195/252 158/192/252
f 165/195/253 159/197/253 158/192/253
f 161/194/254 167/196/254 165/195/254
f 167/196/255 166/198/255 165/195/255
f 165/195/256 166/198/256 159/197/256
f 166/198/257 128/199/257 159/197/257
f 129/176/258 124/175/258 167/196/258
f 124/175/259 147/200/259 167/196/259
f 167/196/260 147/200/260 166/198/260
f 147/200/261 146/201/261 166/198/261
f 166/198/262 146/201/262 128/199/262
f 146/201/263 120/171/263 128/199/263
f 158/202/264 155/203/264 127/204/264
f 159/205/265 168/206/265 158/202/265
f 128/173/266 170/207/266 159/205/266
f 158/202/267 168/206/267 155/203/267
f 168/206/268 156/208/268 155/203/268
f 159/205/269 170/207/269 168/206/269
f 170/207/270 169/209/270 168/206/270
f 168/206/271 169/209/271 156/208/271
f 169/209/272 157/170/272 156/208/272
f 128/173/273 123/172/273 170/207/273
f 123/172/274 145/210/274 170/207/274
f 170/207/275 145/210/275 169/209/275
f 145/210/276 144/166/276 169/209/276
f 169/209/277 144/166/277 157/170/277
f 155/211/278 150/212/278 127/213/278
f 156/214/279 171/215/279 155/211/279
f 157/153/280 173/144/280 156/214/280
f 155/211/281 171/215/281 150/212/281
f 171/215/282 151/216/282 150/212/282
f 156/214/283 173/144/283 171/215/283
f 173/144/284 172/143/284 171/215/284
f 171/215/285 172/143/285 151/216/285
f 172/143/286 152/156/286 151/216/286
f 150/217/287 126/218/287 127/219/287
f 151/220/288 174/221/288 150/217/288
f 152/164/289 176/222/289 151/220/289
f 150/217/290 174/221/290 126/218/290
f 174/221/291 154/223/291 126/218/291
f 151/220/292 176/222/292 174/221/292
f 176/222/293 175/224/293 174/221/293
f 174/221/294 175/224/294 154/223/294
f 175/224/295 153/225/295 154/223/295
f 152/164/296 143/148/296 176/222/296
f 143/148/297 142/226/297 176/222/297
f 176/222/298 142/226/298 175/224/298
f 142/226/299 141/227/299 175/224/299
f 175/224/300 141/227/300 153/225/300
f 141/227/301 118/177/301 153/225/301
f 117/228/302 125/178/302 118/177/302
f 132/168/303 177/229/303 117/228/303
f 117/228/304 177/229/304 125/178/304
f 177/229/305 149/189/305 125/178/305
f 132/168/306 179/152/306 177/229/306
f 179/152/307 178/151/307 177/229/307
f 177/229/308 178/151/308 149/189/308
f 178/151/309 148/190/309 149/189/309
f 178/151/310 140/165/310 148/190/310
f 140/165/311 122/174/311 148/190/311
f 121/160/312 124/175/312 122/174/312
f 121/160/313 180/155/313 124/175/313
f 180/155/314 147/200/314 124/175/314
f 182/154/315 181/230/315 180/155/315
f 180/155/316 181/230/316 147/200/316
f 181/230/317 146/201/317 147/200/317
f 182/154/318 138/159/318 181/230/318
f 138/159/319 137/231/319 181/230/319
f 181/230/320 137/231/320 146/201/320
f 137/231/321 120/171/321 146/201/321
f 119/232/322 123/172/322 120/171/322
f 139/149/323 183/163/323 119/232/323
f 119/232/324 183/163/324 123/172/324
f 183/163/325 145/210/325 123/172/325
f 183/163/326 184/162/326 145/210/326
f 184/162/327 144/166/327 145/210/327
f 136/158/328 135/157/328 184/162/328
f 184/162/329 135/157/329 144/166/329
f 133/161/330 185/169/330 134/147/330
f 134/147/331 185/169/331 143/148/331
f 185/169/332 142/226/332 143/148/332
f 185/169/333 186/146/333 142/226/333
f 186/146/334 141/227/334 142/226/334
f 131/145/335 130/233/335 186/146/335
f 186/146/336 130/233/336 141/227/336
f 130/233/337 118/177/337 141/227/337
f 140/165/338 121/160/338 122/174/338
f 137/231/339 119/232/339 120/171/339
f 138/159/340 187/150/340 137/231/340
f 137/231/341 187/150/341 119/232/341
f 187/150/342 139/149/342 119/232/342
f 130/233/343 117/228/343 118/177/343
f 131/145/344 188/167/344 130/233/344
f 130/233/345 188/167/345 117/228/345
f 188/167/346 132/168/346 117/228/346
