# Blender v3.2.1 OBJ File: 'footballer2.blend'
# www.blender.org
mtllib footballer2.mtl
o Icosphere
v 0.000000 -1.000000 0.000000
v -0.093498 -0.447220 -0.889524
v 0.817095 -0.447220 -0.363799
v 0.598488 -0.447216 0.664688
v -0.447216 -0.447220 0.774592
v -0.874878 -0.447220 -0.185966
v 0.447216 0.447220 -0.774592
v -0.598488 0.447216 -0.664688
v 0.688298 -0.657519 -0.306454
v 0.480273 -0.850654 -0.213834
v 0.229431 -0.967950 -0.102151
v -0.026253 -0.967950 -0.249768
v -0.054956 -0.850654 -0.522845
v -0.078760 -0.657519 -0.749310
v 0.150673 -0.502302 -0.851464
v 0.425319 -0.525738 -0.736684
v 0.662047 -0.502302 -0.556226
v -0.763226 -0.502301 -0.406423
v -0.569194 -0.525736 -0.632155
v -0.324418 -0.502301 -0.801528
v -0.245656 -0.967950 -0.052217
v -0.514237 -0.850654 -0.109307
v -0.736973 -0.657519 -0.156653
v 0.504151 -0.657515 0.559916
v 0.351782 -0.850652 0.390693
v 0.168050 -0.967949 0.186639
v 0.856351 -0.502302 -0.119814
v 0.832059 -0.525736 0.176861
v 0.733584 -0.502299 0.457767
v -0.376722 -0.657519 0.652494
v -0.262865 -0.850654 0.455290
v -0.125573 -0.967950 0.217497
v 0.378579 -0.502299 0.777415
v 0.088918 -0.525736 0.845988
v -0.208671 -0.502302 0.839136
v -0.622382 -0.502302 0.600278
v -0.777106 -0.525738 0.345985
v -0.862549 -0.502302 0.060845
v -0.530406 0.251149 -0.809687
v -0.406741 -0.000000 -0.913544
v -0.246812 -0.251151 -0.935953
v -0.905026 -0.251151 -0.343294
v -0.866023 0.000000 -0.500004
v -0.749809 0.251149 -0.612136
v 0.606158 0.251152 -0.754649
v 0.743145 -0.000000 -0.669130
v 0.813876 -0.251152 -0.523955
v 0.046814 -0.251152 -0.966815
v 0.207911 0.000000 -0.978148
v 0.350471 0.251152 -0.902271
v 0.866023 -0.000000 0.500004
v 0.749809 -0.251149 0.612136
v 0.933962 -0.251152 -0.254238
v 0.994522 0.000000 -0.104528
v -0.207911 -0.000000 0.978148
v -0.350471 -0.251152 0.902271
v 0.530406 -0.251149 0.809687
v 0.406741 0.000000 0.913544
v -0.994522 -0.000000 0.104528
v -0.966412 -0.251152 -0.054502
v -0.606158 -0.251152 0.754649
v -0.743145 0.000000 0.669130
v -0.378579 0.502299 -0.777415
v -0.088918 0.525736 -0.845988
v 0.208671 0.502302 -0.839136
v 0.622382 0.502302 -0.600278
v -0.733584 0.502299 -0.457767
v 0.376722 0.657519 -0.652494
v -0.504151 0.657515 -0.559916
v -0.622381 0.723610 -0.298380
v -0.231689 0.723610 -0.650161
v -0.892735 0.276396 -0.355850
v -0.978147 0.000000 -0.207916
v -0.500001 -0.000000 0.866025
v 0.669131 0.000001 0.743145
v 0.913546 -0.000001 -0.406736
v 0.062558 0.276396 -0.959005
v -0.104531 -0.000002 -0.994522
v -0.260583 0.276394 -0.925042
v -0.913546 -0.000000 0.406736
v -0.931401 -0.276398 0.236849
v -0.799245 -0.276398 0.533678
v 0.104531 -0.000000 0.994522
v -0.062560 -0.276397 0.959005
v 0.260581 -0.276396 0.925042
v 0.978147 0.000000 0.207914
v 0.892736 -0.276396 0.355847
v 0.960291 -0.276397 0.038026
v 0.500000 0.000000 -0.866025
v 0.614298 -0.276398 -0.739082
v 0.332909 -0.276398 -0.901541
v -0.669131 0.000000 -0.743145
v -0.513080 -0.276396 -0.812622
v -0.754539 -0.276396 -0.595211
v -0.678899 -0.723612 0.124429
v -0.408547 -0.894429 0.181895
v -0.546745 -0.723611 0.421256
v -0.091449 -0.723612 0.684122
v 0.046747 -0.894429 0.444760
v 0.231690 -0.723609 0.650161
v 0.622381 -0.723609 0.298381
v 0.437439 -0.894428 0.092980
v 0.689935 -0.723610 -0.019439
v -0.569593 -0.723611 -0.389809
v -0.328135 -0.723610 -0.607220
v -0.299242 -0.894428 -0.332343
v 0.476098 -0.723612 -0.499717
v 0.223602 -0.894429 -0.387297
v 0.194710 -0.723611 -0.662174
v 1.033688 0.261962 0.050110
v 0.935585 0.472100 0.191009
v 0.262447 0.261961 0.994816
v 0.098131 0.472100 0.945056
v -0.874359 0.261962 0.553252
v -0.877809 0.472100 0.381603
v 0.221569 0.531135 -0.907658
v 0.477233 0.472100 -0.838482
v 0.922371 0.531135 -0.073515
v 0.345622 0.531134 0.850745
v -0.711634 0.531135 0.587839
v 0.401680 0.697491 -0.707622
v -0.182187 1.030198 -0.208335
v -0.002077 1.064550 -0.008303
v 0.787783 0.697491 0.159592
v 0.082335 0.697491 0.794780
v -0.739769 0.697491 0.320143
v 0.647581 0.261962 -0.817108
v 0.794398 -0.007213 -0.725452
v 0.967897 0.261961 0.359626
v 0.926095 -0.007213 0.527583
v 1.063815 -0.007213 -0.120332
v -0.052251 0.261962 1.027893
v -0.224908 -0.007213 1.040039
v 0.433853 -0.007213 0.970799
v -1.003063 0.261962 0.264180
v -1.067968 -0.007213 0.103726
v -0.798552 -0.007213 0.708846
v -0.407823 0.531132 -0.841508
v -0.097376 0.556251 -0.915001
v 0.664969 0.531135 -0.651659
v 0.830797 0.556253 -0.379117
v 0.815921 0.531134 0.427286
v 0.607965 0.556251 0.669217
v -0.163563 0.531135 0.904264
v -0.457918 0.556253 0.781247
v -0.919882 0.531135 0.120109
v -0.893846 0.556251 -0.197856
v -0.788305 0.531132 -0.498921
v 0.132508 1.030199 -0.241408
v 0.279652 0.904487 -0.496266
v -0.542407 0.697487 -0.608401
v -0.379103 0.904484 -0.427034
v 0.261208 1.030199 0.047661
v 0.549063 0.904486 0.108849
v 0.026060 1.030199 0.259389
v 0.056823 0.904486 0.552063
v -0.247972 1.030199 0.101178
v -0.516815 0.904487 0.220876
v -0.470905 0.951403 -0.107956
v -0.741522 0.768327 0.012531
v -0.669121 0.768325 -0.328096
v -0.241725 0.951403 0.406785
v -0.210760 0.768327 0.701389
v -0.512341 0.768328 0.527274
v 0.318640 0.951403 0.347888
v 0.608392 0.768326 0.409480
v 0.349606 0.768326 0.642492
v 0.435788 0.951403 -0.203250
v 0.583903 0.768328 -0.459789
v 0.725541 0.768327 -0.141660
v -0.052178 0.951403 -0.484980
v -0.250392 0.768325 -0.705121
v 0.095937 0.768327 -0.741520
v -0.805694 0.261959 -0.664367
v -0.958877 0.289018 -0.389689
v -1.031281 0.289019 -0.049061
v -1.050418 -0.007213 -0.231139
v -0.660459 0.289019 0.783817
v -0.358877 0.289019 0.957935
v -0.537959 -0.007214 0.919870
v 0.547823 0.289018 0.862635
v 0.806610 0.289018 0.629622
v 0.715073 -0.007213 0.788172
v 0.996164 0.289019 -0.262149
v 0.854525 0.289019 -0.580279
v 0.977028 -0.007214 -0.444228
v -0.981181 -0.007213 0.427622
v 0.109956 -0.007213 1.057588
v 1.046265 -0.007213 0.214532
vt 0.181819 0.000000
vt 0.204546 0.039365
vt 0.159092 0.039365
vt 0.272728 0.157461
vt 0.295455 0.118096
vt 0.318182 0.157461
vt 0.909091 0.000000
vt 0.931818 0.039365
vt 0.886364 0.039365
vt 0.727273 0.000000
vt 0.750000 0.039365
vt 0.704546 0.039365
vt 0.545455 0.000000
vt 0.568182 0.039365
vt 0.522728 0.039365
vt 0.295455 0.196826
vt 0.090910 0.157461
vt 0.136364 0.157461
vt 0.113637 0.196826
vt 0.818182 0.157461
vt 0.863636 0.157461
vt 0.840909 0.196826
vt 0.636364 0.157461
vt 0.681818 0.157461
vt 0.659091 0.196826
vt 0.454546 0.157461
vt 0.500000 0.157461
vt 0.477273 0.196826
vt 0.250001 0.196826
vt 0.068182 0.196826
vt 0.795455 0.196826
vt 0.613637 0.196826
vt 0.431819 0.196826
vt 0.363637 0.314921
vt 0.409091 0.314921
vt 0.386364 0.354286
vt 0.431819 0.354286
vt 0.136364 0.314921
vt 0.181819 0.314921
vt 0.159092 0.354286
vt 0.295455 0.354286
vt 0.318182 0.314921
vt 0.340910 0.354286
vt 0.386364 0.275556
vt 0.409091 0.236191
vt 0.431819 0.275556
vt 0.454546 0.236191
vt 0.500000 0.236191
vt 0.636364 0.236191
vt 0.590909 0.236191
vt 0.681818 0.236191
vt 0.818182 0.236191
vt 0.772727 0.236191
vt 0.863636 0.236191
vt 0.090910 0.236191
vt 0.045455 0.236191
vt 0.136364 0.236191
vt 0.159092 0.275556
vt 0.204546 0.275556
vt 0.227273 0.314921
vt 0.227273 0.236191
vt 0.250001 0.275556
vt 0.272728 0.236191
vt 0.272728 0.314921
vt 0.295455 0.275556
vt 0.318182 0.236191
vt 0.340910 0.275556
vt 0.522728 0.196826
vt 0.545455 0.236191
vt 0.568182 0.196826
vt 0.545455 0.157461
vt 0.590909 0.157461
vt 0.704546 0.196826
vt 0.727273 0.236191
vt 0.750000 0.196826
vt 0.727273 0.157461
vt 0.772727 0.157461
vt 0.886364 0.196826
vt 0.909091 0.236191
vt 0.931818 0.196826
vt 0.954545 0.236191
vt 0.977273 0.196826
vt 0.909091 0.157461
vt 0.954545 0.157461
vt 1.000000 0.157461
vt 0.181819 0.236191
vt 0.159092 0.196826
vt 0.204546 0.196826
vt 0.181819 0.157461
vt 0.227274 0.157461
vt 0.363637 0.236191
vt 0.340910 0.196826
vt 0.386364 0.196826
vt 0.363637 0.157461
vt 0.409092 0.157461
vt 0.477273 0.118096
vt 0.500000 0.078731
vt 0.522728 0.118096
vt 0.545455 0.078731
vt 0.568182 0.118096
vt 0.590909 0.078731
vt 0.613637 0.118096
vt 0.659091 0.118096
vt 0.681818 0.078731
vt 0.704546 0.118096
vt 0.727273 0.078731
vt 0.750000 0.118096
vt 0.772727 0.078731
vt 0.795455 0.118096
vt 0.840909 0.118096
vt 0.863636 0.078731
vt 0.886364 0.118096
vt 0.909091 0.078731
vt 0.931818 0.118096
vt 0.954545 0.078731
vt 0.977273 0.118096
vt 0.431819 0.118096
vt 0.386364 0.118096
vt 0.340910 0.118096
vt 0.409091 0.078731
vt 0.363637 0.078730
vt 0.386364 0.039365
vt 0.318182 0.078731
vt 0.340910 0.039365
vt 0.363637 0.000000
vt 0.113637 0.118096
vt 0.136365 0.078731
vt 0.159092 0.118096
vt 0.181819 0.078731
vt 0.204546 0.118096
vt 0.227273 0.078731
vt 0.250001 0.118096
vt 0.272728 0.314921
vt 0.227273 0.314921
vt 0.181819 0.314921
vt 0.159092 0.354286
vt 0.386364 0.275556
vt 0.409091 0.314921
vt 0.340910 0.354286
vt 0.295455 0.354286
vt 0.818182 0.236191
vt 0.772727 0.236191
vt 0.318182 0.314921
vt 0.500000 0.236191
vt 0.454546 0.236191
vt 0.727273 0.236191
vt 0.681818 0.236191
vt 0.431819 0.275556
vt 0.863636 0.236191
vt 0.159092 0.275556
vt 0.136364 0.236191
vt 0.431819 0.354286
vt 0.136364 0.314921
vt 0.636364 0.236191
vt 0.590909 0.236191
vt 0.545455 0.236191
vt 0.386364 0.354286
vt 0.090910 0.236191
vt 0.045455 0.236191
vt 0.909091 0.236191
vt 0.954545 0.236191
vt 0.204546 0.354286
vt 0.000000 0.314921
vt 0.045455 0.314921
vt 0.022727 0.354286
vt 0.727273 0.314921
vt 0.772727 0.314921
vt 0.750000 0.354286
vt 0.545455 0.314921
vt 0.590909 0.314921
vt 0.568182 0.354286
vt 0.431819 0.433017
vt 0.477273 0.433017
vt 0.454546 0.472382
vt 0.409091 0.393651
vt 0.454546 0.393651
vt 0.500000 0.393651
vt 0.477273 0.354286
vt 0.522728 0.354286
vt 0.454546 0.314921
vt 0.500000 0.314921
vt 0.613637 0.433017
vt 0.659091 0.433017
vt 0.636364 0.472382
vt 0.590909 0.393651
vt 0.636364 0.393651
vt 0.613637 0.354286
vt 0.681818 0.393651
vt 0.659091 0.354286
vt 0.704546 0.354286
vt 0.636364 0.314921
vt 0.681818 0.314921
vt 0.795455 0.433017
vt 0.840909 0.433017
vt 0.818182 0.472382
vt 0.772727 0.393651
vt 0.818182 0.393651
vt 0.795455 0.354286
vt 0.863636 0.393651
vt 0.840909 0.354286
vt 0.886364 0.354286
vt 0.818182 0.314921
vt 0.863636 0.314921
vt 0.909091 0.314921
vt 0.068182 0.433017
vt 0.113637 0.433017
vt 0.090910 0.472382
vt 0.045455 0.393651
vt 0.090910 0.393651
vt 0.068182 0.354286
vt 0.136365 0.393651
vt 0.113637 0.354286
vt 0.090909 0.314921
vt 0.250001 0.433017
vt 0.295455 0.433017
vt 0.272728 0.472382
vt 0.227273 0.393651
vt 0.272728 0.393651
vt 0.250001 0.354286
vt 0.318182 0.393651
vt 0.477273 0.275556
vt 0.522728 0.275556
vt 0.568182 0.275556
vt 0.613637 0.275556
vt 0.659091 0.275556
vt 0.704546 0.275556
vt 0.750000 0.275556
vt 0.795455 0.275556
vt 0.840909 0.275556
vt 0.886364 0.275556
vt 0.022727 0.275556
vt 0.068182 0.275556
vt 0.113637 0.275556
vt 0.931818 0.275556
vn 0.0779 -0.9878 -0.1349
vn -0.1775 -0.5545 -0.8130
vn 0.1524 -0.9878 0.0324
vn 0.0163 -0.9878 0.1550
vn -0.1423 -0.9878 0.0634
vn -0.2420 -0.3987 -0.8846
vn 0.7665 -0.3987 -0.5035
vn 0.7157 -0.3987 0.5734
vn -0.3242 -0.3987 0.8579
vn -0.9161 -0.3987 -0.0432
vn -0.0996 -0.3024 -0.9480
vn 0.8708 -0.3024 -0.3877
vn 0.6378 -0.3024 0.7084
vn -0.4766 -0.3024 0.8255
vn -0.9324 -0.3024 -0.1982
vn -0.6215 0.5545 -0.5534
vn -0.6292 0.6369 -0.4454
vn 0.4929 0.5545 -0.6705
vn -0.3772 0.6369 -0.6723
vn -0.4854 0.5545 -0.6760
vn -0.7157 0.3987 -0.5734
vn -0.8525 0.1745 -0.4926
vn -0.9307 -0.0784 -0.3573
vn -0.9292 0.0962 -0.3567
vn -0.9639 -0.1702 -0.2049
vn -0.9956 -0.0784 -0.0522
vn -0.6274 -0.0784 0.7748
vn -0.4927 -0.1702 0.8534
vn -0.3573 -0.0784 0.9307
vn 0.5430 -0.0784 0.8361
vn 0.6594 -0.1702 0.7323
vn 0.7748 -0.0784 0.6274
vn 0.9630 -0.0784 -0.2580
vn 0.9002 -0.1702 -0.4008
vn 0.8361 -0.0784 -0.5430
vn 0.5809 0.3987 -0.7097
vn 0.3242 0.3987 -0.8579
vn 0.2051 0.1745 -0.9631
vn 0.0522 -0.0784 -0.9956
vn 0.2105 0.3485 -0.9134
vn 0.0553 0.4399 -0.8964
vn 0.0521 0.0962 -0.9940
vn -0.1027 0.1876 -0.9769
vn -0.0975 0.3611 -0.9274
vn -0.2404 0.4399 -0.8653
vn -0.1030 -0.1702 -0.9800
vn -0.2580 -0.0784 -0.9630
vn -0.2576 0.0962 -0.9614
vn -0.4008 0.1745 -0.8994
vn -0.3958 0.3485 -0.8496
vn -0.4955 0.3987 -0.7717
vn -0.9793 -0.1745 0.1026
vn -0.9614 -0.0962 0.2576
vn -0.8973 -0.1876 0.3995
vn -0.8348 -0.0962 0.5421
vn -0.7315 -0.1745 0.6591
vn -0.9337 -0.3485 0.0820
vn -0.8696 -0.4399 0.2244
vn -0.8519 -0.3611 0.3793
vn -0.7486 -0.4399 0.4960
vn -0.6857 -0.3485 0.6390
vn -0.5809 -0.3987 0.7097
vn -0.2051 -0.1745 0.9631
vn -0.0521 -0.0962 0.9940
vn 0.1027 -0.1876 0.9769
vn 0.2576 -0.0962 0.9614
vn 0.4008 -0.1745 0.8994
vn -0.2105 -0.3485 0.9134
vn -0.0553 -0.4399 0.8964
vn 0.0975 -0.3611 0.9274
vn 0.2404 -0.4399 0.8653
vn 0.3958 -0.3485 0.8496
vn 0.4955 -0.3987 0.7717
vn 0.8525 -0.1745 0.4926
vn 0.9292 -0.0962 0.3567
vn 0.9608 -0.1876 0.2042
vn 0.9940 -0.0962 0.0521
vn 0.9792 -0.1745 -0.1033
vn 0.8036 -0.3485 0.4825
vn 0.8354 -0.4399 0.3296
vn 0.9121 -0.3611 0.1939
vn 0.8972 -0.4399 0.0387
vn 0.9304 -0.3485 -0.1139
vn 0.8871 -0.3987 -0.2327
vn 0.4766 0.3024 -0.8255
vn 0.6274 0.0784 -0.7748
vn 0.7320 -0.1745 -0.6586
vn 0.4927 0.1702 -0.8534
vn 0.3573 0.0784 -0.9307
vn 0.6264 -0.0962 -0.7735
vn 0.4911 -0.1876 -0.8507
vn 0.3567 -0.0962 -0.9292
vn 0.2044 -0.1745 -0.9632
vn 0.7072 -0.3485 -0.6152
vn 0.5716 -0.4399 -0.6927
vn 0.4663 -0.3611 -0.8076
vn 0.3141 -0.4399 -0.8413
vn 0.1792 -0.3485 -0.9200
vn 0.0528 -0.3987 -0.9156
vn -0.6378 0.3024 -0.7084
vn -0.5430 0.0784 -0.8361
vn -0.4002 -0.1745 -0.8997
vn -0.6594 0.1702 -0.7323
vn -0.7748 0.0784 -0.6274
vn -0.5421 -0.0962 -0.8348
vn -0.6573 -0.1876 -0.7300
vn -0.7735 -0.0962 -0.6264
vn -0.8529 -0.1745 -0.4920
vn -0.3665 -0.3485 -0.8627
vn -0.4821 -0.4399 -0.7577
vn -0.6240 -0.3611 -0.6930
vn -0.7031 -0.4399 -0.5587
vn -0.8196 -0.3485 -0.4547
vn -0.8544 -0.3987 -0.3331
vn -0.8281 -0.5545 -0.0824
vn -0.6491 -0.7594 -0.0445
vn -0.4017 -0.9158 0.0081
vn -0.7708 -0.6369 0.0095
vn -0.7817 -0.5955 0.1853
vn -0.5436 -0.8363 0.0716
vn -0.5546 -0.7947 0.2469
vn -0.6761 -0.6726 0.3010
vn -0.6608 -0.5955 0.4569
vn -0.2635 -0.9575 0.1173
vn -0.2748 -0.9158 0.2931
vn -0.4169 -0.8363 0.3561
vn -0.4013 -0.7594 0.5121
vn -0.5229 -0.6369 0.5665
vn -0.4929 -0.5545 0.6705
vn -0.3342 -0.5545 0.7621
vn -0.2429 -0.7594 0.6035
vn -0.1164 -0.9158 0.3845
vn -0.2292 -0.6369 0.7361
vn -0.0653 -0.5955 0.8007
vn -0.0999 -0.8363 0.5391
vn 0.0635 -0.7947 0.6037
vn 0.0774 -0.6726 0.7360
vn 0.2304 -0.5955 0.7696
vn 0.0302 -0.9575 0.2869
vn 0.1938 -0.9158 0.3519
vn 0.2098 -0.8363 0.5066
vn 0.3630 -0.7594 0.5399
vn 0.3772 -0.6369 0.6723
vn 0.4854 -0.5545 0.6760
vn 0.6215 -0.5545 0.5534
vn 0.4990 -0.7594 0.4175
vn 0.3297 -0.9158 0.2295
vn 0.6292 -0.6369 0.4454
vn 0.7413 -0.5955 0.3096
vn 0.4819 -0.8363 0.2616
vn 0.5938 -0.7947 0.1262
vn 0.7239 -0.6726 0.1539
vn 0.8032 -0.5955 0.0187
vn 0.2822 -0.9575 0.0600
vn 0.3946 -0.9158 -0.0756
vn 0.5466 -0.8363 -0.0430
vn 0.6256 -0.7594 -0.1784
vn 0.7560 -0.6369 -0.1510
vn 0.7929 -0.5545 -0.2528
vn -0.7900 -0.5545 -0.2616
vn -0.6388 -0.5955 -0.4872
vn -0.4178 -0.5955 -0.6862
vn -0.7003 -0.6369 -0.3222
vn -0.6110 -0.7594 -0.2234
vn -0.4952 -0.6726 -0.5500
vn -0.4062 -0.7947 -0.4511
vn -0.4675 -0.8363 -0.2865
vn -0.3636 -0.9158 -0.1708
vn -0.2472 -0.6369 -0.7302
vn -0.1583 -0.7594 -0.6310
vn -0.2361 -0.8363 -0.4949
vn -0.1318 -0.9158 -0.3795
vn -0.1930 -0.9575 -0.2144
vn -0.1043 -0.9878 -0.1158
vn 0.7184 -0.5545 -0.4201
vn 0.5512 -0.7594 -0.3455
vn 0.3202 -0.9158 -0.2427
vn 0.6180 -0.6369 -0.4608
vn 0.5235 -0.5955 -0.6094
vn 0.3977 -0.8363 -0.3774
vn 0.3035 -0.7947 -0.5257
vn 0.3700 -0.6726 -0.6409
vn 0.2660 -0.5955 -0.7581
vn 0.1442 -0.9575 -0.2498
vn 0.0501 -0.9158 -0.3986
vn 0.1280 -0.8363 -0.5331
vn 0.0236 -0.7594 -0.6502
vn 0.0900 -0.6369 -0.7656
vn 0.0046 -0.5545 -0.8322
vn -0.0630 -0.9156 -0.3971
vn 0.8972 0.0457 0.4393
vn 0.6741 0.3547 -0.6479
vn -0.0188 -0.7787 -0.6271
vn -0.0622 -0.9935 -0.0957
vn -0.0211 -0.9153 -0.4021
vn 0.0977 -0.9952 0.0051
vn 0.0060 -0.9934 -0.1141
vn -0.1845 -0.9828 -0.0060
vn -0.0870 -0.9937 -0.0704
vn -0.8272 0.2638 0.4961
vn -0.0298 -0.9934 -0.1111
vn -0.6566 -0.5381 -0.5286
vn 0.6536 0.1977 -0.7306
vn -0.8086 0.3451 -0.4765
vn 0.0686 -0.9940 -0.0848
vn -0.3051 -0.7000 -0.6457
vn 0.0980 -0.9948 -0.0263
vn -0.6518 -0.7511 -0.1049
vn -0.0976 -0.9949 0.0262
vn -0.1014 -0.9100 -0.4020
vn 0.0402 -0.9937 -0.1048
vn 0.0883 -0.9944 -0.0574
vn -0.1015 -0.9941 -0.0390
vn 0.3078 -0.5212 -0.7960
vn -0.0817 -0.9952 0.0531
vn -0.1048 -0.9945 -0.0055
vn 0.3342 0.5545 -0.7621
vn 0.8281 0.5545 0.0824
vn 0.1775 0.5545 0.8130
vn -0.7184 0.5545 0.4201
vn -0.1524 0.9878 -0.0324
vn -0.3297 0.9158 -0.2295
vn -0.4990 0.7594 -0.4175
vn -0.2822 0.9575 -0.0600
vn -0.3946 0.9158 0.0756
vn -0.4819 0.8363 -0.2616
vn -0.5938 0.7947 -0.1262
vn -0.5466 0.8363 0.0430
vn -0.6256 0.7594 0.1784
vn -0.7413 0.5955 -0.3096
vn -0.7239 0.6726 -0.1539
vn -0.8032 0.5955 -0.0187
vn -0.7560 0.6369 0.1510
vn -0.7929 0.5545 0.2528
vn -0.0779 0.9878 0.1349
vn -0.3202 0.9158 0.2427
vn -0.5512 0.7594 0.3455
vn -0.1442 0.9575 0.2498
vn -0.0501 0.9158 0.3986
vn -0.3977 0.8363 0.3774
vn -0.3035 0.7947 0.5257
vn -0.1280 0.8363 0.5331
vn -0.0236 0.7594 0.6502
vn -0.6180 0.6369 0.4608
vn -0.5235 0.5955 0.6094
vn -0.3700 0.6726 0.6409
vn -0.2660 0.5955 0.7581
vn -0.0900 0.6369 0.7656
vn -0.0046 0.5545 0.8322
vn 0.1043 0.9878 0.1158
vn 0.1318 0.9158 0.3795
vn 0.1583 0.7594 0.6310
vn 0.1930 0.9575 0.2144
vn 0.3636 0.9158 0.1708
vn 0.2361 0.8363 0.4949
vn 0.4062 0.7947 0.4511
vn 0.4675 0.8363 0.2865
vn 0.6110 0.7594 0.2234
vn 0.2472 0.6369 0.7302
vn 0.4178 0.5955 0.6862
vn 0.4952 0.6726 0.5500
vn 0.6388 0.5955 0.4872
vn 0.7003 0.6369 0.3222
vn 0.7900 0.5545 0.2616
vn 0.1423 0.9878 -0.0634
vn 0.4017 0.9158 -0.0081
vn 0.6491 0.7594 0.0445
vn 0.2635 0.9575 -0.1173
vn 0.2748 0.9158 -0.2931
vn 0.5436 0.8363 -0.0716
vn 0.5546 0.7947 -0.2469
vn 0.4169 0.8363 -0.3561
vn 0.4013 0.7594 -0.5121
vn 0.7708 0.6369 -0.0095
vn 0.7817 0.5955 -0.1853
vn 0.6761 0.6726 -0.3010
vn 0.6608 0.5955 -0.4569
vn 0.5229 0.6369 -0.5665
vn -0.0163 0.9878 -0.1550
vn 0.1164 0.9158 -0.3845
vn 0.2429 0.7594 -0.6035
vn -0.0302 0.9575 -0.2869
vn -0.1938 0.9158 -0.3519
vn 0.0999 0.8363 -0.5391
vn -0.0635 0.7947 -0.6037
vn -0.2098 0.8363 -0.5066
vn -0.3630 0.7594 -0.5399
vn 0.2292 0.6369 -0.7361
vn 0.0653 0.5955 -0.8007
vn -0.0774 0.6726 -0.7360
vn -0.2304 0.5955 -0.7696
vn -0.8036 0.3485 -0.4825
vn -0.8354 0.4399 -0.3296
vn -0.9608 0.1876 -0.2042
vn -0.9121 0.3611 -0.1939
vn -0.8972 0.4399 -0.0387
vn -0.9940 0.0962 -0.0521
vn -0.9792 0.1745 0.1033
vn -0.9304 0.3485 0.1139
vn -0.8871 0.3987 0.2327
vn -0.7665 0.3987 0.5035
vn -0.7320 0.1745 0.6586
vn -0.7072 0.3485 0.6152
vn -0.5716 0.4399 0.6927
vn -0.6264 0.0962 0.7735
vn -0.4911 0.1876 0.8507
vn -0.4663 0.3611 0.8076
vn -0.3141 0.4399 0.8413
vn -0.3567 0.0962 0.9292
vn -0.2044 0.1745 0.9632
vn -0.1792 0.3485 0.9200
vn -0.0528 0.3987 0.9156
vn 0.2420 0.3987 0.8846
vn 0.4002 0.1745 0.8997
vn 0.3665 0.3485 0.8627
vn 0.4821 0.4399 0.7577
vn 0.5421 0.0962 0.8348
vn 0.6573 0.1876 0.7300
vn 0.6240 0.3611 0.6930
vn 0.7031 0.4399 0.5587
vn 0.7735 0.0962 0.6264
vn 0.8529 0.1745 0.4920
vn 0.8196 0.3485 0.4547
vn 0.8544 0.3987 0.3331
vn 0.9161 0.3987 0.0432
vn 0.9793 0.1745 -0.1026
vn 0.9337 0.3485 -0.0820
vn 0.8696 0.4399 -0.2244
vn 0.9614 0.0962 -0.2576
vn 0.8973 0.1876 -0.3995
vn 0.8519 0.3611 -0.3793
vn 0.7486 0.4399 -0.4960
vn 0.8348 0.0962 -0.5421
vn 0.7315 0.1745 -0.6591
vn 0.6857 0.3485 -0.6390
vn -0.8708 0.3024 0.3877
vn -0.9630 0.0784 0.2580
vn -0.9002 0.1702 0.4008
vn -0.8361 0.0784 0.5430
vn 0.0996 0.3024 0.9480
vn -0.0522 0.0784 0.9956
vn 0.1030 0.1702 0.9800
vn 0.2580 0.0784 0.9630
vn 0.9324 0.3024 0.1982
vn 0.9307 0.0784 0.3573
vn 0.9639 0.1702 0.2049
vn 0.9956 0.0784 0.0522
usemtl Material.001
s off
f 1/1/1 12/2/1 11/3/1
f 2/4/2 14/5/2 20/6/2
f 1/7/3 11/8/3 26/9/3
f 1/10/4 26/11/4 32/12/4
f 1/13/5 32/14/5 21/15/5
f 2/4/6 20/6/6 41/16/6
f 3/17/7 17/18/7 47/19/7
f 4/20/8 29/21/8 52/22/8
f 5/23/9 35/24/9 56/25/9
f 6/26/10 38/27/10 60/28/10
f 2/4/11 41/16/11 48/29/11
f 3/17/12 47/19/12 53/30/12
f 4/20/13 52/22/13 57/31/13
f 5/23/14 56/25/14 61/32/14
f 6/26/15 60/28/15 42/33/15
f 8/34/16 67/35/16 69/36/16
f 69/36/17 67/35/17 70/37/17
f 66/38/18 7/39/18 68/40/18
f 71/41/19 63/42/19 69/43/19
f 63/42/20 8/34/20 69/43/20
f 44/44/21 67/35/21 8/34/21
f 43/45/22 72/46/22 44/44/22
f 42/33/23 73/47/23 43/45/23
f 43/45/24 73/47/24 72/46/24
f 42/33/25 60/28/25 73/47/25
f 60/28/26 59/48/26 73/47/26
f 61/32/27 74/49/27 62/50/27
f 61/32/28 56/25/28 74/49/28
f 56/25/29 55/51/29 74/49/29
f 57/31/30 75/52/30 58/53/30
f 57/31/31 52/22/31 75/52/31
f 52/22/32 51/54/32 75/52/32
f 53/30/33 76/55/33 54/56/33
f 53/30/34 47/19/34 76/55/34
f 47/19/35 46/57/35 76/55/35
f 45/58/36 7/39/36 66/38/36
f 50/59/37 65/60/37 7/39/37
f 49/61/38 77/62/38 50/59/38
f 48/29/39 78/63/39 49/61/39
f 50/59/40 77/62/40 65/60/40
f 77/62/41 64/64/41 65/60/41
f 49/61/42 78/63/42 77/62/42
f 78/63/43 79/65/43 77/62/43
f 77/62/44 79/65/44 64/64/44
f 79/65/45 63/42/45 64/64/45
f 48/29/46 41/16/46 78/63/46
f 41/16/47 40/66/47 78/63/47
f 78/63/48 40/66/48 79/65/48
f 40/66/49 39/67/49 79/65/49
f 79/65/50 39/67/50 63/42/50
f 39/67/51 8/34/51 63/42/51
f 60/28/52 81/68/52 59/48/52
f 59/48/53 81/68/53 80/69/53
f 81/68/54 82/70/54 80/69/54
f 80/69/55 82/70/55 62/50/55
f 82/70/56 61/32/56 62/50/56
f 60/28/57 38/27/57 81/68/57
f 38/27/58 37/71/58 81/68/58
f 81/68/59 37/71/59 82/70/59
f 37/71/60 36/72/60 82/70/60
f 82/70/61 36/72/61 61/32/61
f 36/72/62 5/23/62 61/32/62
f 56/25/63 84/73/63 55/51/63
f 55/51/64 84/73/64 83/74/64
f 84/73/65 85/75/65 83/74/65
f 83/74/66 85/75/66 58/53/66
f 85/75/67 57/31/67 58/53/67
f 56/25/68 35/24/68 84/73/68
f 35/24/69 34/76/69 84/73/69
f 84/73/70 34/76/70 85/75/70
f 34/76/71 33/77/71 85/75/71
f 85/75/72 33/77/72 57/31/72
f 33/77/73 4/20/73 57/31/73
f 52/22/74 87/78/74 51/54/74
f 51/54/75 87/78/75 86/79/75
f 87/78/76 88/80/76 86/79/76
f 86/79/77 88/80/77 54/81/77
f 88/80/78 53/82/78 54/81/78
f 52/22/79 29/21/79 87/78/79
f 29/21/80 28/83/80 87/78/80
f 87/78/81 28/83/81 88/80/81
f 28/83/82 27/84/82 88/80/82
f 88/80/83 27/84/83 53/82/83
f 27/84/84 3/85/84 53/82/84
f 45/58/85 50/59/85 7/39/85
f 46/57/86 89/86/86 45/58/86
f 47/19/87 90/87/87 46/57/87
f 45/58/88 89/86/88 50/59/88
f 89/86/89 49/61/89 50/59/89
f 46/57/90 90/87/90 89/86/90
f 90/87/91 91/88/91 89/86/91
f 89/86/92 91/88/92 49/61/92
f 91/88/93 48/29/93 49/61/93
f 47/19/94 17/18/94 90/87/94
f 17/18/95 16/89/95 90/87/95
f 90/87/96 16/89/96 91/88/96
f 16/89/97 15/90/97 91/88/97
f 91/88/98 15/90/98 48/29/98
f 15/90/99 2/4/99 48/29/99
f 39/67/100 44/44/100 8/34/100
f 40/66/101 92/91/101 39/67/101
f 41/16/102 93/92/102 40/66/102
f 39/67/103 92/91/103 44/44/103
f 92/91/104 43/45/104 44/44/104
f 40/66/105 93/92/105 92/91/105
f 93/92/106 94/93/106 92/91/106
f 92/91/107 94/93/107 43/45/107
f 94/93/108 42/33/108 43/45/108
f 41/16/109 20/6/109 93/92/109
f 20/6/110 19/94/110 93/92/110
f 93/92/111 19/94/111 94/93/111
f 19/94/112 18/95/112 94/93/112
f 94/93/113 18/95/113 42/33/113
f 18/95/114 6/26/114 42/33/114
f 23/96/115 38/27/115 6/26/115
f 22/97/116 95/98/116 23/96/116
f 21/15/117 96/99/117 22/97/117
f 23/96/118 95/98/118 38/27/118
f 95/98/119 37/71/119 38/27/119
f 22/97/120 96/99/120 95/98/120
f 96/99/121 97/100/121 95/98/121
f 95/98/122 97/100/122 37/71/122
f 97/100/123 36/72/123 37/71/123
f 21/15/124 32/14/124 96/99/124
f 32/14/125 31/101/125 96/99/125
f 96/99/126 31/101/126 97/100/126
f 31/101/127 30/102/127 97/100/127
f 97/100/128 30/102/128 36/72/128
f 30/102/129 5/23/129 36/72/129
f 30/103/130 35/24/130 5/23/130
f 31/104/131 98/105/131 30/103/131
f 32/12/132 99/106/132 31/104/132
f 30/103/133 98/105/133 35/24/133
f 98/105/134 34/76/134 35/24/134
f 31/104/135 99/106/135 98/105/135
f 99/106/136 100/107/136 98/105/136
f 98/105/137 100/107/137 34/76/137
f 100/107/138 33/77/138 34/76/138
f 32/12/139 26/11/139 99/106/139
f 26/11/140 25/108/140 99/106/140
f 99/106/141 25/108/141 100/107/141
f 25/108/142 24/109/142 100/107/142
f 100/107/143 24/109/143 33/77/143
f 24/109/144 4/20/144 33/77/144
f 24/110/145 29/21/145 4/20/145
f 25/111/146 101/112/146 24/110/146
f 26/9/147 102/113/147 25/111/147
f 24/110/148 101/112/148 29/21/148
f 101/112/149 28/83/149 29/21/149
f 25/111/150 102/113/150 101/112/150
f 102/113/151 103/114/151 101/112/151
f 101/112/152 103/114/152 28/83/152
f 103/114/153 27/84/153 28/83/153
f 26/9/154 11/8/154 102/113/154
f 11/8/155 10/115/155 102/113/155
f 102/113/156 10/115/156 103/114/156
f 10/115/157 9/116/157 103/114/157
f 103/114/158 9/116/158 27/84/158
f 9/116/159 3/85/159 27/84/159
f 18/95/160 23/117/160 6/26/160
f 19/94/161 104/118/161 18/95/161
f 20/6/162 105/119/162 19/94/162
f 18/95/163 104/118/163 23/117/163
f 104/118/164 22/120/164 23/117/164
f 19/94/165 105/119/165 104/118/165
f 105/119/166 106/121/166 104/118/166
f 104/118/167 106/121/167 22/120/167
f 106/121/168 21/122/168 22/120/168
f 20/6/169 14/5/169 105/119/169
f 14/5/170 13/123/170 105/119/170
f 105/119/171 13/123/171 106/121/171
f 13/123/172 12/124/172 106/121/172
f 106/121/173 12/124/173 21/122/173
f 12/124/174 1/125/174 21/122/174
f 9/126/175 17/18/175 3/17/175
f 10/127/176 107/128/176 9/126/176
f 11/3/177 108/129/177 10/127/177
f 9/126/178 107/128/178 17/18/178
f 107/128/179 16/89/179 17/18/179
f 10/127/180 108/129/180 107/128/180
f 108/129/181 109/130/181 107/128/181
f 107/128/182 109/130/182 16/89/182
f 109/130/183 15/90/183 16/89/183
f 11/3/184 12/2/184 108/129/184
f 12/2/185 13/131/185 108/129/185
f 108/129/186 13/131/186 109/130/186
f 13/131/187 14/132/187 109/130/187
f 109/130/188 14/132/188 15/90/188
f 14/132/189 2/4/189 15/90/189
usemtl Material.002
f 65/60/190 64/64/190 139/133/190 116/134/190
f 68/40/191 7/39/191 117/135/191 121/136/191
f 67/35/192 44/44/192 174/137/192 148/138/192
f 71/41/193 69/43/193 151/139/193 172/140/193
f 58/53/194 75/52/194 183/141/194 134/142/194
f 64/64/195 63/42/195 138/143/195 139/133/195
f 73/47/196 59/48/196 136/144/196 177/145/196
f 55/51/197 83/74/197 188/146/197 133/147/197
f 44/44/198 72/46/198 175/148/198 174/137/198
f 75/52/199 51/54/199 130/149/199 183/141/199
f 63/42/200 71/41/200 172/140/200 138/143/200
f 83/74/201 58/53/201 134/142/201 188/146/201
f 46/57/202 45/58/202 127/150/202 128/151/202
f 70/37/203 67/35/203 148/138/203 161/152/203
f 45/58/204 66/38/204 140/153/204 127/150/204
f 62/50/205 74/49/205 180/154/205 137/155/205
f 66/38/206 68/40/206 121/136/206 140/153/206
f 59/48/207 80/69/207 187/156/207 136/144/207
f 69/36/208 70/37/208 161/152/208 151/157/208
f 54/56/209 76/55/209 186/158/209 131/159/209
f 7/39/210 65/60/210 116/134/210 117/135/210
f 74/49/211 55/51/211 133/147/211 180/154/211
f 80/69/212 62/50/212 137/155/212 187/156/212
f 51/54/213 86/79/213 189/160/213 130/149/213
f 72/46/214 73/47/214 177/145/214 175/148/214
f 76/55/215 46/57/215 128/151/215 186/158/215
f 86/79/216 54/81/216 131/161/216 189/160/216
f 117/135/217 116/134/217 121/162/217
f 111/163/218 118/164/218 124/165/218
f 113/166/219 119/167/219 125/168/219
f 115/169/220 120/170/220 126/171/220
f 122/172/221 157/173/221 123/174/221
f 152/175/222 159/176/222 122/172/222
f 151/157/223 161/152/223 152/175/223
f 122/172/224 159/176/224 157/173/224
f 159/176/225 158/177/225 157/173/225
f 152/175/226 161/152/226 159/176/226
f 161/152/227 160/178/227 159/176/227
f 159/176/228 160/178/228 158/177/228
f 160/178/229 126/179/229 158/177/229
f 148/138/230 147/180/230 161/152/230
f 161/152/231 147/180/231 160/178/231
f 147/180/232 146/181/232 160/178/232
f 160/178/233 146/181/233 126/179/233
f 146/181/234 115/169/234 126/179/234
f 157/182/235 155/183/235 123/184/235
f 158/185/236 162/186/236 157/182/236
f 126/171/237 164/187/237 158/185/237
f 157/182/238 162/186/238 155/183/238
f 162/186/239 156/188/239 155/183/239
f 158/185/240 164/187/240 162/186/240
f 164/187/241 163/189/241 162/186/241
f 162/186/242 163/189/242 156/188/242
f 163/189/243 125/190/243 156/188/243
f 126/171/244 120/170/244 164/187/244
f 120/170/245 145/191/245 164/187/245
f 164/187/246 145/191/246 163/189/246
f 145/191/247 144/192/247 163/189/247
f 163/189/248 144/192/248 125/190/248
f 144/192/249 113/166/249 125/190/249
f 155/193/250 153/194/250 123/195/250
f 156/196/251 165/197/251 155/193/251
f 125/168/252 167/198/252 156/196/252
f 155/193/253 165/197/253 153/194/253
f 165/197/254 154/199/254 153/194/254
f 156/196/255 167/198/255 165/197/255
f 167/198/256 166/200/256 165/197/256
f 165/197/257 166/200/257 154/199/257
f 166/200/258 124/201/258 154/199/258
f 125/168/259 119/167/259 167/198/259
f 119/167/260 143/202/260 167/198/260
f 167/198/261 143/202/261 166/200/261
f 143/202/262 142/203/262 166/200/262
f 166/200/263 142/203/263 124/201/263
f 142/203/264 111/204/264 124/201/264
f 153/205/265 149/206/265 123/207/265
f 154/208/266 168/209/266 153/205/266
f 124/165/267 170/210/267 154/208/267
f 153/205/268 168/209/268 149/206/268
f 168/209/269 150/211/269 149/206/269
f 154/208/270 170/210/270 168/209/270
f 170/210/271 169/212/271 168/209/271
f 168/209/272 169/212/272 150/211/272
f 169/212/273 121/136/273 150/211/273
f 124/165/274 118/164/274 170/210/274
f 118/164/275 141/213/275 170/210/275
f 170/210/276 141/213/276 169/212/276
f 141/213/277 140/153/277 169/212/277
f 169/212/278 140/153/278 121/136/278
f 149/214/279 122/215/279 123/216/279
f 150/217/280 171/218/280 149/214/280
f 121/162/281 173/219/281 150/217/281
f 149/214/282 171/218/282 122/215/282
f 171/218/283 152/220/283 122/215/283
f 150/217/284 173/219/284 171/218/284
f 173/219/285 172/140/285 171/218/285
f 171/218/286 172/140/286 152/220/286
f 172/140/287 151/139/287 152/220/287
f 121/162/288 116/134/288 173/219/288
f 116/134/289 139/133/289 173/219/289
f 173/219/290 139/133/290 172/140/290
f 139/133/291 138/143/291 172/140/291
f 174/137/292 175/148/292 148/138/292
f 175/148/293 147/180/293 148/138/293
f 177/145/294 176/221/294 175/148/294
f 175/148/295 176/221/295 147/180/295
f 176/221/296 146/181/296 147/180/296
f 177/145/297 136/144/297 176/221/297
f 136/144/298 135/222/298 176/221/298
f 176/221/299 135/222/299 146/181/299
f 135/222/300 115/169/300 146/181/300
f 114/223/301 120/170/301 115/169/301
f 137/155/302 178/224/302 114/223/302
f 114/223/303 178/224/303 120/170/303
f 178/224/304 145/191/304 120/170/304
f 137/155/305 180/154/305 178/224/305
f 180/154/306 179/225/306 178/224/306
f 178/224/307 179/225/307 145/191/307
f 179/225/308 144/192/308 145/191/308
f 180/154/309 133/147/309 179/225/309
f 133/147/310 132/226/310 179/225/310
f 179/225/311 132/226/311 144/192/311
f 132/226/312 113/166/312 144/192/312
f 112/227/313 119/167/313 113/166/313
f 134/142/314 181/228/314 112/227/314
f 112/227/315 181/228/315 119/167/315
f 181/228/316 143/202/316 119/167/316
f 134/142/317 183/141/317 181/228/317
f 183/141/318 182/229/318 181/228/318
f 181/228/319 182/229/319 143/202/319
f 182/229/320 142/203/320 143/202/320
f 183/141/321 130/149/321 182/229/321
f 130/149/322 129/230/322 182/229/322
f 182/229/323 129/230/323 142/203/323
f 129/230/324 111/204/324 142/203/324
f 110/231/325 118/164/325 111/163/325
f 131/159/326 184/232/326 110/231/326
f 110/231/327 184/232/327 118/164/327
f 184/232/328 141/213/328 118/164/328
f 131/159/329 186/158/329 184/232/329
f 186/158/330 185/233/330 184/232/330
f 184/232/331 185/233/331 141/213/331
f 185/233/332 140/153/332 141/213/332
f 186/158/333 128/151/333 185/233/333
f 128/151/334 127/150/334 185/233/334
f 185/233/335 127/150/335 140/153/335
f 135/222/336 114/223/336 115/169/336
f 136/144/337 187/156/337 135/222/337
f 135/222/338 187/156/338 114/223/338
f 187/156/339 137/155/339 114/223/339
f 132/226/340 112/227/340 113/166/340
f 133/147/341 188/146/341 132/226/341
f 132/226/342 188/146/342 112/227/342
f 188/146/343 134/142/343 112/227/343
f 129/230/344 110/234/344 111/204/344
f 130/149/345 189/160/345 129/230/345
f 129/230/346 189/160/346 110/234/346
f 189/160/347 131/161/347 110/234/347
