# Blender v3.2.1 OBJ File: 'shoe.blend'
# www.blender.org
mtllib shoe.mtl
o Cube
v 0.165828 0.612177 -0.017417
v 0.085055 0.608906 -0.017417
v 0.016708 0.507531 -0.017417
v -0.060958 0.507531 -0.017417
v -0.179012 0.429047 -0.017417
v -0.284638 0.422507 -0.017417
v -0.380945 0.337482 -0.017417
v -0.436865 0.353833 -0.017417
v -0.564238 0.258998 -0.017417
v -0.651225 0.265538 -0.017417
v -0.769278 0.196864 -0.017417
v -0.905972 0.160893 -0.017417
v -0.980532 0.160893 -0.017417
v -1.079945 0.102029 -0.017418
v -1.247705 0.059517 -0.017418
v -1.368865 0.056247 -0.017418
v -1.434105 0.043166 -0.017418
v -1.558372 0.003924 -0.017418
v -1.701278 -0.061479 -0.017418
v -1.782052 -0.126883 -0.017418
v -1.844185 -0.264230 -0.017418
v -1.834865 -0.349255 -0.017418
v -1.794478 -0.424469 -0.017418
v -1.701278 -0.519304 -0.017417
v -1.496238 -0.607599 -0.017417
v -1.312945 -0.666462 -0.017417
v -1.067518 -0.738406 -0.017417
v -0.794132 -0.777648 -0.017417
v -0.415118 -0.787458 -0.017417
v -0.210078 -0.767837 -0.017417
v 0.081948 -0.728595 -0.017417
v 0.383295 -0.705704 -0.017417
v 0.718815 -0.718784 -0.017417
v 0.930068 -0.718784 -0.017417
v 1.206561 -0.705704 -0.017417
v 1.386748 -0.689353 -0.017417
v 1.566934 -0.692623 -0.017417
v 1.622854 -0.659921 -0.017417
v 1.644601 -0.617409 -0.017417
v 1.675668 -0.558546 -0.017417
v 1.675668 -0.506223 -0.017417
v 1.728481 -0.277311 -0.017417
v 1.734694 -0.107262 -0.017417
v 1.703628 0.108570 -0.017417
v 1.625961 0.308050 -0.017417
v 1.526548 0.638338 -0.017417
v 1.464415 0.687391 -0.017417
v 1.396068 0.631798 -0.017417
v 1.324615 0.432317 -0.017417
v 1.243841 0.321131 -0.017417
v 1.072975 0.249187 -0.017417
v 0.790268 0.285159 -0.017417
v 0.579015 0.370184 -0.017417
v 0.445428 0.484640 -0.017417
v 0.165828 0.612177 0.152632
v 0.085055 0.608906 0.152632
v 0.016708 0.507531 0.152632
v -0.060958 0.507531 0.152632
v -0.179012 0.429047 0.152632
v -0.284638 0.422507 0.152632
v -0.380945 0.337482 0.152632
v -0.436865 0.353833 0.152632
v -0.564238 0.258998 0.152632
v -0.651225 0.265538 0.152632
v -0.769278 0.196864 0.152632
v -0.905972 0.160893 0.152632
v -0.980532 0.160893 0.152632
v -1.079945 0.102029 0.152632
v -1.247705 0.059517 0.152632
v -1.368865 0.056247 0.152632
v -1.434105 0.043166 0.152632
v -1.558372 0.003924 0.152631
v -1.701278 -0.061479 0.152632
v -1.782052 -0.126883 0.152632
v -1.844185 -0.264230 0.152632
v -1.834865 -0.349255 0.152632
v -1.794478 -0.424469 0.152632
v -1.701278 -0.519304 0.152632
v -1.496238 -0.607599 0.152632
v -1.312945 -0.666462 0.152632
v -1.067518 -0.738406 0.152632
v -0.794132 -0.777648 0.152632
v -0.415118 -0.787458 0.152632
v -0.210079 -0.767837 0.152632
v 0.081948 -0.728595 0.152632
v 0.383295 -0.705704 0.152632
v 0.718815 -0.718784 0.152632
v 0.930068 -0.718784 0.152632
v 1.206561 -0.705704 0.152632
v 1.386748 -0.689353 0.152632
v 1.566934 -0.692623 0.152632
v 1.622854 -0.659921 0.152632
v 1.644601 -0.617409 0.152632
v 1.675668 -0.558546 0.152632
v 1.675668 -0.506223 0.152632
v 1.728481 -0.277311 0.152632
v 1.734694 -0.107262 0.152632
v 1.703628 0.108570 0.152632
v 1.625961 0.308050 0.152632
v 1.526548 0.638338 0.152632
v 1.464415 0.687391 0.152632
v 1.396068 0.631798 0.152632
v 1.324615 0.432317 0.152632
v 1.243841 0.321131 0.152632
v 1.072975 0.249187 0.152632
v 0.790268 0.285159 0.152632
v 0.579014 0.370184 0.152632
v 0.445428 0.484640 0.152632
v 0.158761 0.612177 0.329221
v 0.082382 0.608906 0.329221
v 0.017753 0.507531 0.329221
v -0.055688 0.507531 0.329221
v -0.167319 0.429047 0.329221
v -0.267200 0.422507 0.329221
v -0.358267 0.337482 0.329221
v -0.411145 0.353833 0.329221
v -0.531589 0.258998 0.329221
v -0.613844 0.265538 0.329221
v -0.725474 0.196864 0.329221
v -0.854732 0.160893 0.329221
v -0.925235 0.160893 0.329221
v -1.019241 0.102029 0.329221
v -1.177874 0.059517 0.329221
v -1.292443 0.056247 0.329221
v -1.354134 0.043166 0.329221
v -1.471640 0.003924 0.329221
v -1.606773 -0.061479 0.329221
v -1.683152 -0.126883 0.329221
v -1.741905 -0.264230 0.329221
v -1.733092 -0.349255 0.329221
v -1.694902 -0.424469 0.329221
v -1.606773 -0.519304 0.329221
v -1.412887 -0.607599 0.329221
v -1.239565 -0.666462 0.329221
v -1.007490 -0.738406 0.329221
v -0.748976 -0.777648 0.329221
v -0.390581 -0.787458 0.329221
v -0.196696 -0.767837 0.329221
v 0.079444 -0.728595 0.329221
v 0.364397 -0.705704 0.329221
v 0.681665 -0.718784 0.329221
v 0.881425 -0.718784 0.329221
v 1.142877 -0.705704 0.329222
v 1.313261 -0.689353 0.329222
v 1.483646 -0.692623 0.329222
v 1.536524 -0.659921 0.329222
v 1.557087 -0.617409 0.329222
v 1.586464 -0.558546 0.329222
v 1.586464 -0.506223 0.329222
v 1.636404 -0.277311 0.329222
v 1.642279 -0.107262 0.329222
v 1.612903 0.108570 0.329221
v 1.539461 0.308050 0.329221
v 1.445456 0.638338 0.329221
v 1.386703 0.687391 0.329221
v 1.322074 0.631798 0.329221
v 1.254508 0.432317 0.329221
v 1.178129 0.321131 0.329221
v 1.016558 0.249187 0.329221
v 0.749231 0.285159 0.329221
v 0.549470 0.370184 0.329221
v 0.423150 0.484640 0.329221
v 0.142351 0.612177 0.478341
v 0.076175 0.608906 0.478341
v 0.020181 0.507531 0.478341
v -0.043449 0.507531 0.478341
v -0.140167 0.429047 0.478341
v -0.226704 0.422507 0.478341
v -0.305605 0.337482 0.478341
v -0.351419 0.353833 0.478341
v -0.455772 0.258998 0.478341
v -0.527038 0.265538 0.478341
v -0.623755 0.196864 0.478341
v -0.735744 0.160893 0.478341
v -0.796829 0.160893 0.478341
v -0.878276 0.102029 0.478341
v -1.015717 0.059517 0.478341
v -1.114980 0.056247 0.478341
v -1.168429 0.043166 0.478341
v -1.270237 0.003924 0.478341
v -1.387316 -0.061479 0.478341
v -1.453491 -0.126883 0.478341
v -1.504395 -0.264230 0.478341
v -1.496760 -0.349255 0.478341
v -1.463672 -0.424469 0.478341
v -1.387316 -0.519304 0.478341
v -1.219333 -0.607599 0.478341
v -1.069166 -0.666462 0.478341
v -0.868095 -0.738406 0.478341
v -0.644117 -0.777648 0.478341
v -0.333602 -0.787458 0.478341
v -0.165619 -0.767837 0.478341
v 0.073630 -0.728595 0.478341
v 0.320515 -0.705704 0.478341
v 0.595397 -0.718784 0.478341
v 0.768470 -0.718784 0.478341
v 0.994993 -0.705704 0.478341
v 1.142615 -0.689353 0.478342
v 1.290237 -0.692623 0.478342
v 1.336051 -0.659921 0.478342
v 1.353867 -0.617409 0.478342
v 1.379319 -0.558546 0.478342
v 1.379319 -0.506223 0.478342
v 1.422587 -0.277311 0.478341
v 1.427678 -0.107262 0.478341
v 1.402226 0.108570 0.478341
v 1.338596 0.308050 0.478341
v 1.257149 0.638338 0.478341
v 1.206245 0.687391 0.478341
v 1.150251 0.631798 0.478341
v 1.091711 0.432317 0.478341
v 1.025536 0.321131 0.478341
v 0.885550 0.360116 0.478341
v 0.653936 0.396088 0.478341
v 0.480862 0.481112 0.478341
v 0.371419 0.595569 0.478341
v 0.118381 0.456894 0.533280
v 0.067110 0.454361 0.533280
v 0.023726 0.375817 0.533280
v -0.025573 0.375817 0.533280
v -0.100507 0.315010 0.533280
v -0.167554 0.309942 0.533280
v -0.228685 0.244067 0.533280
v -0.264181 0.256735 0.533280
v -0.345031 0.183259 0.533280
v -0.400246 0.188327 0.533280
v -0.475181 0.135120 0.533280
v -0.561947 0.107250 0.533280
v -0.609275 0.107250 0.533280
v -0.672378 0.061644 0.533280
v -0.778864 0.028706 0.533280
v -0.855770 0.026173 0.533280
v -0.897182 0.016038 0.533280
v -0.976060 -0.014366 0.533280
v -1.066771 -0.065039 0.533280
v -1.118042 -0.115712 0.533280
v -1.157481 -0.222126 0.533280
v -1.151565 -0.288001 0.533280
v -1.125930 -0.346275 0.533280
v -1.066771 -0.419751 0.533280
v -0.936621 -0.488160 0.533280
v -0.820275 -0.533766 0.533280
v -0.664490 -0.589506 0.533280
v -0.490957 -0.619910 0.533280
v -0.250377 -0.627511 0.533280
v -0.120227 -0.612309 0.533280
v 0.065138 -0.581905 0.533280
v 0.256418 -0.564170 0.533280
v 0.469391 -0.574304 0.533280
v 0.603484 -0.574304 0.533280
v 0.778989 -0.564170 0.533280
v 0.893363 -0.551501 0.533280
v 1.007737 -0.554035 0.533280
v 1.043233 -0.528699 0.533280
v 1.057036 -0.495761 0.533280
v 1.076756 -0.450155 0.533280
v 1.076756 -0.409617 0.533280
v 1.110279 -0.232261 0.533280
v 1.114223 -0.100510 0.533280
v 1.094504 0.066711 0.533280
v 1.045205 0.221264 0.533280
v 0.982102 0.477164 0.533280
v 0.942662 0.515168 0.533280
v 0.899279 0.472096 0.533280
v 0.853924 0.473382 0.533280
v 0.802653 0.445728 0.533280
v 0.694195 0.389988 0.533280
v 0.514746 0.417858 0.533280
v 0.380652 0.483733 0.533280
v 0.295858 0.572411 0.533280
v 0.163404 0.612177 -0.248946
v 0.084138 0.608906 -0.248946
v 0.017067 0.507531 -0.248946
v -0.059150 0.507531 -0.248946
v -0.175000 0.429047 -0.248946
v -0.278655 0.422507 -0.248946
v -0.373164 0.337482 -0.248946
v -0.428040 0.353833 -0.248946
v -0.553036 0.258998 -0.248946
v -0.638399 0.265538 -0.248946
v -0.754249 0.196864 -0.248946
v -0.888391 0.160893 -0.248946
v -0.961559 0.160893 -0.248946
v -1.059117 0.102029 -0.248946
v -1.223746 0.059517 -0.248946
v -1.342644 0.056247 -0.248946
v -1.406666 0.043166 -0.248946
v -1.528613 0.003924 -0.248946
v -1.668853 -0.061479 -0.248946
v -1.748118 -0.126883 -0.248946
v -1.809092 -0.264230 -0.248946
v -1.799946 -0.349255 -0.248946
v -1.760313 -0.424469 -0.248946
v -1.668853 -0.519304 -0.248946
v -1.467640 -0.607599 -0.248946
v -1.287768 -0.666462 -0.248946
v -1.046922 -0.738406 -0.248946
v -0.778638 -0.777648 -0.248946
v -0.406700 -0.787458 -0.248946
v -0.205487 -0.767837 -0.248946
v 0.081089 -0.728595 -0.248946
v 0.376811 -0.705704 -0.248946
v 0.706068 -0.718784 -0.248946
v 0.913378 -0.718784 -0.248946
v 1.184711 -0.705704 -0.248945
v 1.361534 -0.689353 -0.248945
v 1.538358 -0.692623 -0.248945
v 1.593234 -0.659921 -0.248945
v 1.614575 -0.617409 -0.248945
v 1.645061 -0.558546 -0.248945
v 1.645061 -0.506223 -0.248945
v 1.696889 -0.277311 -0.248945
v 1.702986 -0.107262 -0.248945
v 1.672500 0.108570 -0.248946
v 1.596282 0.308050 -0.248946
v 1.498725 0.638338 -0.248946
v 1.437751 0.687391 -0.248946
v 1.370680 0.631798 -0.248946
v 1.300561 0.432317 -0.248946
v 1.221295 0.321131 -0.248946
v 1.053618 0.249187 -0.248946
v 0.776188 0.285159 -0.248946
v 0.568878 0.370184 -0.248946
v 0.437784 0.484640 -0.248946
v 0.153284 0.612177 -0.433384
v 0.080311 0.608906 -0.433384
v 0.018564 0.507531 -0.433384
v -0.051603 0.507531 -0.433384
v -0.158257 0.429047 -0.433384
v -0.253684 0.422507 -0.433384
v -0.340691 0.337482 -0.433384
v -0.391211 0.353833 -0.433384
v -0.506285 0.258998 -0.433384
v -0.584872 0.265538 -0.433384
v -0.691526 0.196864 -0.433384
v -0.815019 0.160893 -0.433384
v -0.882380 0.160893 -0.433384
v -0.972193 0.102029 -0.433384
v -1.123754 0.059517 -0.433384
v -1.233214 0.056247 -0.433384
v -1.292155 0.043166 -0.433384
v -1.404422 0.003924 -0.433384
v -1.533529 -0.061479 -0.433384
v -1.606503 -0.126883 -0.433384
v -1.662636 -0.264230 -0.433384
v -1.654216 -0.349255 -0.433384
v -1.617729 -0.424469 -0.433384
v -1.533529 -0.519304 -0.433384
v -1.348288 -0.607599 -0.433384
v -1.182694 -0.666462 -0.433384
v -0.960967 -0.738406 -0.433384
v -0.713979 -0.777648 -0.433384
v -0.371564 -0.787458 -0.433383
v -0.186324 -0.767837 -0.433383
v 0.077504 -0.728595 -0.433383
v 0.349752 -0.705704 -0.433383
v 0.652873 -0.718784 -0.433383
v 0.843727 -0.718784 -0.433383
v 1.093521 -0.705704 -0.433383
v 1.256308 -0.689353 -0.433383
v 1.419096 -0.692623 -0.433383
v 1.469616 -0.659921 -0.433383
v 1.489262 -0.617409 -0.433383
v 1.517329 -0.558546 -0.433383
v 1.517329 -0.506223 -0.433383
v 1.565043 -0.277311 -0.433383
v 1.570656 -0.107262 -0.433383
v 1.542589 0.108570 -0.433383
v 1.472422 0.308050 -0.433383
v 1.382609 0.638338 -0.433383
v 1.326475 0.687391 -0.433383
v 1.264728 0.631798 -0.433383
v 1.200175 0.432317 -0.433383
v 1.127201 0.321131 -0.433384
v 0.972834 0.360116 -0.433384
v 0.717426 0.396088 -0.433384
v 0.526572 0.481112 -0.433384
v 0.405885 0.595569 -0.433384
v 0.115103 0.612177 -0.617821
v 0.065870 0.608906 -0.617821
v 0.024211 0.507531 -0.617821
v -0.023128 0.507531 -0.617821
v -0.095084 0.429047 -0.617821
v -0.159466 0.422507 -0.617821
v -0.218166 0.337482 -0.617821
v -0.252251 0.353833 -0.617821
v -0.329888 0.258998 -0.617821
v -0.382908 0.265538 -0.617821
v -0.454864 0.196864 -0.617821
v -0.538181 0.160893 -0.617821
v -0.583627 0.160893 -0.617821
v -0.644221 0.102029 -0.617821
v -0.746475 0.059517 -0.617821
v -0.820324 0.056247 -0.617821
v -0.860089 0.043166 -0.617821
v -0.935833 0.003924 -0.617821
v -1.022937 -0.061479 -0.617821
v -1.072170 -0.126883 -0.617821
v -1.110041 -0.264230 -0.617821
v -1.104361 -0.349255 -0.617821
v -1.079744 -0.424469 -0.617821
v -1.022937 -0.519304 -0.617821
v -0.897961 -0.607599 -0.617821
v -0.786240 -0.666462 -0.617821
v -0.636647 -0.738406 -0.617821
v -0.470012 -0.777648 -0.617821
v -0.238996 -0.787458 -0.617821
v -0.114020 -0.767837 -0.617821
v 0.063977 -0.728595 -0.617821
v 0.247654 -0.705704 -0.617821
v 0.452160 -0.718784 -0.617821
v 0.580923 -0.718784 -0.617821
v 0.749452 -0.705704 -0.617821
v 0.859279 -0.689353 -0.617821
v 0.969107 -0.692623 -0.617821
v 1.003191 -0.659921 -0.617821
v 1.016446 -0.617409 -0.617821
v 1.035382 -0.558546 -0.617821
v 1.035382 -0.506223 -0.617821
v 1.067573 -0.277311 -0.617821
v 1.071360 -0.107262 -0.617821
v 1.052424 0.108570 -0.617821
v 1.005085 0.308050 -0.617821
v 0.944490 0.638338 -0.617821
v 0.906619 0.687391 -0.617821
v 0.864960 0.631798 -0.617821
v 0.821407 0.588156 -0.617821
v 0.772174 0.535461 -0.617821
v 0.668028 0.463517 -0.617821
v 0.495712 0.499489 -0.617821
v 0.366949 0.584513 -0.617821
v 0.285525 0.484640 -0.617821
vn -0.6310 0.7758 0.0000
vn -0.9940 -0.1090 0.0000
vn -0.9414 0.3372 0.0000
vn -0.8810 -0.4731 0.0000
vn -0.8090 0.5877 0.0000
vn -0.7132 -0.7009 0.0000
vn -0.3881 0.9216 0.0000
vn -0.3955 -0.9185 0.0000
vn 0.1262 0.9920 0.0000
vn -0.3058 -0.9521 0.0000
vn 0.3734 0.9277 0.0000
vn -0.2813 -0.9596 0.0000
vn 0.6506 0.7594 0.0000
vn -0.1421 -0.9899 0.0000
vn -0.0405 0.9992 0.0000
vn -0.4150 -0.9098 0.0000
vn -0.0259 -0.9997 0.0000
vn -0.8292 0.5590 -0.0000
vn 0.0953 -0.9955 0.0000
vn 0.0000 1.0000 0.0000
vn 0.1332 -0.9911 0.0000
vn -0.5536 0.8328 -0.0000
vn 0.0757 -0.9971 0.0000
vn -0.0390 -0.9992 0.0000
vn -0.6618 0.7497 0.0000
vn 0.0000 -1.0000 0.0000
vn 0.0473 -0.9989 0.0000
vn -0.5972 0.8021 -0.0000
vn 0.0904 -0.9959 0.0000
vn -0.0181 -0.9998 0.0000
vn -0.5028 0.8644 -0.0000
vn 0.5048 -0.8632 0.0000
vn 0.8903 -0.4554 0.0000
vn 0.8844 -0.4668 0.0000
vn 1.0000 0.0000 0.0000
vn -0.2456 0.9694 0.0000
vn 0.9744 -0.2248 0.0000
vn 0.9993 -0.0365 0.0000
vn -0.1966 0.9805 0.0000
vn 0.9898 0.1425 0.0000
vn -0.3011 0.9536 0.0000
vn 0.9319 0.3628 0.0000
vn -0.4162 0.9093 0.0000
vn 0.9576 0.2882 0.0000
vn -0.6293 0.7772 0.0000
vn 0.6196 0.7849 0.0000
vn -0.9111 0.4122 0.0000
vn 0.0486 -0.9987 0.0154
vn 0.0928 -0.9950 0.0360
vn 0.0771 0.9969 -0.0153
vn -0.0187 -0.9998 -0.0083
vn 0.5001 -0.8320 0.2402
vn -0.2605 0.9629 0.0701
vn 0.8193 -0.4077 0.4033
vn 0.8127 -0.4173 0.4067
vn -0.5125 0.8420 0.1683
vn 0.8926 0.0000 0.4509
vn 0.8724 -0.1958 0.4478
vn -0.0277 0.9995 0.0115
vn 0.8859 -0.0315 0.4628
vn -0.2011 0.9755 0.0890
vn 0.8810 0.1234 0.4568
vn -0.3055 0.9412 0.1442
vn 0.8466 0.3206 0.4248
vn -0.4159 0.8840 0.2134
vn 0.8734 0.2557 0.4144
vn -0.6038 0.7254 0.3306
vn 0.6063 0.7471 0.2726
vn -0.8116 0.3572 0.4623
vn -0.6184 0.7396 -0.2656
vn -0.8622 -0.0919 0.4981
vn -0.8812 0.3070 -0.3595
vn -0.7911 -0.4132 0.4510
vn -0.7791 0.5506 -0.2996
vn -0.6718 -0.6422 0.3692
vn -0.3935 0.9092 -0.1361
vn -0.3966 -0.8960 0.1997
vn 0.1296 0.9909 0.0358
vn -0.3105 -0.9405 0.1378
vn 0.3812 0.9214 0.0762
vn -0.2868 -0.9518 0.1083
vn 0.6579 0.7469 0.0965
vn -0.1458 -0.9884 0.0434
vn -0.0416 0.9991 -0.0011
vn -0.4243 -0.9048 -0.0353
vn -0.0266 -0.9996 0.0052
vn -0.8362 0.5484 -0.0039
vn 0.0979 -0.9951 -0.0105
vn 0.1368 -0.9906 -0.0042
vn 0.0778 -0.9970 0.0047
vn -0.0635 0.9980 0.0052
vn -0.0400 -0.9992 -0.0064
vn 0.2876 0.9569 -0.0394
vn 0.5752 0.1976 0.7938
vn -0.3861 0.7444 0.5448
vn 0.6005 0.1595 0.7836
vn -0.4738 0.5163 0.7134
vn 0.5145 0.5750 0.6361
vn -0.5261 0.2100 0.8241
vn -0.5291 0.5740 -0.6250
vn -0.5320 -0.0515 0.8452
vn -0.6511 0.2058 -0.7305
vn -0.5211 -0.2469 0.8170
vn -0.6288 0.4031 -0.6649
vn -0.4978 -0.4317 0.7522
vn -0.0982 0.8986 -0.4276
vn -0.3748 -0.7681 0.5191
vn 0.1209 0.8382 -0.5318
vn -0.3156 -0.8672 0.3851
vn 0.3786 0.8301 -0.4094
vn -0.2996 -0.9019 0.3112
vn 0.6754 0.6956 -0.2449
vn -0.1592 -0.9786 0.1304
vn -0.0458 0.9989 -0.0035
vn -0.2691 -0.9212 0.2811
vn -0.0293 -0.9994 0.0159
vn -0.8594 0.5113 -0.0109
vn 0.1078 -0.9937 -0.0318
vn 0.1505 -0.9885 -0.0128
vn -0.5998 0.7962 0.0792
vn 0.0858 -0.9962 0.0143
vn -0.0700 0.9974 0.0159
vn -0.0441 -0.9988 -0.0193
vn -0.6906 0.6903 0.2157
vn 0.3123 0.9426 -0.1177
vn 0.0535 -0.9975 0.0468
vn -0.6188 0.7334 0.2812
vn 0.1017 -0.9889 0.1086
vn 0.0848 0.9953 -0.0462
vn -0.0206 -0.9995 -0.0251
vn -0.5198 0.7885 0.3286
vn 0.4463 -0.6734 0.5894
vn -0.2796 0.9376 0.2069
vn 0.5739 -0.2591 0.7769
vn 0.5670 -0.2641 0.7802
vn -0.4977 0.7418 0.4495
vn 0.5842 0.0000 0.8116
vn -0.2658 0.9254 0.2701
vn 0.5741 -0.1169 0.8104
vn -0.0306 0.9989 0.0348
vn 0.5712 -0.0184 0.8206
vn -0.2139 0.9415 0.2605
vn 0.5726 0.0727 0.8166
vn -0.3087 0.8626 0.4007
vn 0.0324 -0.3489 0.9366
vn -0.0321 0.4247 0.9048
vn -0.0175 -0.3687 0.9294
vn -0.3053 0.2833 0.9091
vn -0.0000 -0.3554 0.9347
vn 0.2227 0.6239 0.7491
vn 0.0194 -0.3359 0.9417
vn -0.2609 0.2871 0.9217
vn 0.0349 -0.3149 0.9485
vn 0.0588 0.6411 0.7652
vn -0.0085 -0.3834 0.9235
vn -0.2164 0.3047 0.9275
vn 0.1131 -0.1584 0.9809
vn -0.1426 0.4440 0.8846
vn 0.1557 -0.0652 0.9856
vn 0.0000 0.7155 0.6986
vn 0.1550 -0.0670 0.9856
vn -0.1976 0.2734 0.9414
vn 0.1787 0.0000 0.9839
vn -0.1429 0.4620 0.8753
vn 0.1687 -0.0319 0.9852
vn -0.0269 0.8178 0.5748
vn 0.1725 -0.0052 0.9850
vn -0.1230 0.5027 0.8557
vn 0.1730 0.0204 0.9847
vn -0.1468 0.3809 0.9129
vn 0.1684 0.0537 0.9843
vn -0.1589 0.2844 0.9454
vn 0.1718 0.0424 0.9842
vn -0.1648 0.1667 0.9721
vn 0.1223 0.1269 0.9844
vn -0.1633 0.0605 0.9847
vn -0.4610 0.4643 -0.7562
vn -0.1548 -0.0139 0.9879
vn -0.2473 0.1297 -0.9602
vn -0.1457 -0.0641 0.9872
vn -0.1779 0.1504 -0.9725
vn -0.1350 -0.1087 0.9849
vn -0.0348 0.5157 -0.8561
vn -0.1050 -0.1997 0.9742
vn 0.1535 0.9881 -0.0027
vn -0.0906 -0.2311 0.9687
vn 0.3508 0.7141 0.6058
vn -0.0857 -0.2396 0.9671
vn 0.4438 0.4244 0.7893
vn -0.0499 -0.2849 0.9572
vn -0.0166 0.3358 0.9418
vn 0.1398 -0.5746 -0.8064
vn -0.0101 -0.3201 0.9473
vn -0.5561 0.3072 0.7723
vn 0.0401 -0.3432 0.9384
vn 0.0000 0.3850 0.9229
vn 0.0570 -0.3473 0.9360
vn -0.2745 0.3382 0.9002
vn 0.8803 -0.4603 -0.1153
vn 0.9914 0.0000 -0.1311
vn -0.2477 0.9685 -0.0240
vn 0.9666 -0.2209 -0.1298
vn 0.9901 -0.0358 -0.1354
vn -0.1983 0.9799 -0.0230
vn 0.9812 0.1399 -0.1331
vn -0.3035 0.9521 -0.0375
vn 0.9261 0.3572 -0.1216
vn -0.4187 0.9064 -0.0562
vn 0.9516 0.2837 -0.1182
vn -0.6303 0.7711 -0.0903
vn 0.6216 0.7800 -0.0731
vn -0.9042 0.4052 -0.1348
vn -0.6330 0.7709 0.0711
vn -0.9831 -0.1068 -0.1486
vn -0.9377 0.3327 0.1001
vn -0.8753 -0.4656 -0.1306
vn -0.8090 0.5822 0.0814
vn -0.7127 -0.6939 -0.1025
vn -0.3909 0.9197 0.0354
vn -0.3981 -0.9158 -0.0525
vn 0.1274 0.9918 -0.0092
vn -0.3082 -0.9507 -0.0358
vn 0.3763 0.9263 -0.0197
vn -0.2836 -0.9585 -0.0280
vn 0.6539 0.7561 -0.0251
vn -0.1434 -0.9896 -0.0112
vn -0.0408 0.9992 0.0003
vn -0.4182 -0.9083 0.0091
vn -0.0261 -0.9997 -0.0013
vn -0.8316 0.5554 0.0010
vn 0.0961 -0.9954 0.0027
vn 0.1344 -0.9909 0.0011
vn -0.5572 0.8303 -0.0070
vn 0.0765 -0.9971 -0.0012
vn -0.0393 -0.9992 0.0016
vn -0.6652 0.7464 -0.0198
vn 0.0477 -0.9989 -0.0040
vn -0.6006 0.7991 -0.0260
vn 0.0912 -0.9958 -0.0093
vn -0.0183 -0.9998 0.0021
vn -0.5061 0.8619 -0.0304
vn 0.5073 -0.8594 -0.0638
vn 0.8862 -0.4491 -0.1141
vn 0.0803 -0.9967 -0.0067
vn -0.0656 0.9978 -0.0074
vn -0.0413 -0.9991 0.0090
vn 0.2959 0.9536 0.0556
vn 0.0501 -0.9985 -0.0219
vn 0.0957 -0.9941 -0.0510
vn 0.0795 0.9966 0.0216
vn -0.0193 -0.9997 0.0117
vn 0.4981 -0.8027 -0.3280
vn -0.2676 0.9584 -0.0987
vn 0.7697 -0.3711 -0.5194
vn 0.7629 -0.3795 -0.5234
vn -0.5174 0.8234 -0.2330
vn 0.8221 0.0000 -0.5693
vn 0.8052 -0.1751 -0.5666
vn -0.0286 0.9995 -0.0163
vn 0.8127 -0.0280 -0.5820
vn -0.2065 0.9704 -0.1253
vn 0.8101 0.1099 -0.5759
vn -0.3112 0.9288 -0.2014
vn 0.7886 0.2894 -0.5425
vn -0.4176 0.8598 -0.2938
vn 0.8155 0.2313 -0.5305
vn -0.5854 0.6813 -0.4395
vn 0.5971 0.7127 -0.3681
vn -0.7471 0.3185 -0.5834
vn -0.6098 0.7065 0.3591
vn -0.7813 -0.0807 -0.6189
vn -0.8372 0.2826 0.4683
vn -0.7319 -0.3703 -0.5720
vn -0.7567 0.5180 0.3989
vn -0.6421 -0.5947 -0.4838
vn -0.0962 0.9397 0.3282
vn -0.3995 -0.8743 -0.2758
vn 0.1175 0.8700 0.4788
vn -0.3165 -0.9288 -0.1926
vn 0.3588 0.8400 0.4069
vn -0.2936 -0.9438 -0.1520
vn 0.6426 0.7068 0.2958
vn -0.1503 -0.9867 -0.0614
vn -0.0429 0.9991 0.0016
vn -0.2553 -0.9335 -0.2516
vn -0.0275 -0.9996 -0.0074
vn -0.8440 0.5363 0.0053
vn 0.1010 -0.9948 0.0149
vn 0.1412 -0.9900 0.0060
vn 0.3759 0.0856 -0.9227
vn -0.3179 0.2970 -0.9004
vn 0.3694 0.3540 -0.8592
vn -0.3194 0.1093 -0.9413
vn -0.3834 0.3566 0.8520
vn -0.3172 -0.0263 -0.9480
vn -0.3928 0.1747 0.9029
vn -0.3184 -0.1293 -0.9391
vn -0.3324 0.2479 0.9100
vn -0.3222 -0.2395 -0.9159
vn -0.0859 0.6737 0.7340
vn -0.3033 -0.5328 -0.7900
vn 0.1582 0.9403 0.3014
vn -0.2909 -0.6852 -0.6677
vn 0.4697 0.8828 0.0094
vn -0.2952 -0.7617 -0.5768
vn 0.0718 0.9946 -0.0748
vn -0.1792 -0.9443 -0.2760
vn -0.0534 0.9985 0.0076
vn -0.2970 -0.8717 0.3898
vn -0.0342 -0.9988 -0.0349
vn -0.8906 0.4542 0.0212
vn 0.1252 -0.9897 0.0695
vn 0.1748 -0.9842 0.0279
vn -0.6514 0.7412 -0.1618
vn 0.0999 -0.9945 -0.0313
vn -0.0815 0.9961 -0.0348
vn -0.0514 -0.9978 0.0422
vn -0.6935 0.5942 -0.4075
vn 0.3493 0.9037 0.2476
vn 0.0621 -0.9928 -0.1022
vn -0.6016 0.6112 -0.5143
vn 0.1158 -0.9656 -0.2327
vn 0.0984 0.9900 0.1009
vn -0.0239 -0.9982 0.0550
vn -0.4936 0.6418 -0.5869
vn 0.3362 -0.4349 -0.8353
vn -0.2988 0.8589 -0.4159
vn 0.3620 -0.1401 -0.9216
vn 0.3567 -0.1424 -0.9233
vn -0.4257 0.5438 -0.7232
vn 0.3574 0.0000 -0.9339
vn -0.2715 0.8105 -0.5191
vn 0.3518 -0.0614 -0.9341
vn -0.0356 0.9965 -0.0762
vn 0.3471 -0.0096 -0.9378
vn -0.2210 0.8337 -0.5061
vn 0.3491 0.0380 -0.9363
vn -0.2806 0.6722 -0.6851
vn 0.3575 0.1053 -0.9280
vn -0.3046 0.5035 -0.8085
vn 0.0000 -0.0000 -1.0000
vn -0.0000 0.0000 1.0000
vn -0.0618 0.9981 0.0000
vn 0.2806 0.9598 0.0000
vn 0.0750 0.9972 0.0000
vn -0.2545 0.9671 -0.0000
vn -0.5095 0.8605 -0.0000
vn -0.0270 0.9996 0.0000
vn -0.6047 0.7901 0.0999
vn -0.5097 0.8523 0.1172
vn -0.2510 0.9635 0.0928
vn -0.5640 0.8253 0.0271
vn -0.6701 0.7384 0.0761
vn -0.5125 0.8575 -0.0441
vn -0.0272 0.9996 -0.0030
vn -0.0624 0.9981 -0.0013
vn 0.2831 0.9590 0.0102
vn 0.0757 0.9971 0.0039
vn -0.2567 0.9663 -0.0181
vn -0.5760 0.8165 -0.0379
vn -0.6798 0.7257 -0.1059
vn -0.6139 0.7770 -0.1391
vn -0.5182 0.8395 -0.1633
vn -0.2575 0.9574 -0.1305
usemtl Material
s off
f 47//1 48//1 102//1 101//1
f 21//2 22//2 76//2 75//2
f 48//3 49//3 103//3 102//3
f 22//4 23//4 77//4 76//4
f 49//5 50//5 104//5 103//5
f 23//6 24//6 78//6 77//6
f 50//7 51//7 105//7 104//7
f 24//8 25//8 79//8 78//8
f 51//9 52//9 106//9 105//9
f 25//10 26//10 80//10 79//10
f 52//11 53//11 107//11 106//11
f 26//12 27//12 81//12 80//12
f 53//13 54//13 108//13 107//13
f 27//14 28//14 82//14 81//14
f 1//15 2//15 56//15 55//15
f 1//16 54//16 108//16 55//16
f 28//17 29//17 83//17 82//17
f 2//18 3//18 57//18 56//18
f 29//19 30//19 84//19 83//19
f 3//20 4//20 58//20 57//20
f 30//21 31//21 85//21 84//21
f 4//22 5//22 59//22 58//22
f 31//23 32//23 86//23 85//23
f 32//24 33//24 87//24 86//24
f 6//25 7//25 61//25 60//25
f 33//26 34//26 88//26 87//26
f 34//27 35//27 89//27 88//27
f 8//28 9//28 63//28 62//28
f 35//29 36//29 90//29 89//29
f 36//30 37//30 91//30 90//30
f 10//31 11//31 65//31 64//31
f 37//32 38//32 92//32 91//32
f 38//33 39//33 93//33 92//33
f 12//20 13//20 67//20 66//20
f 39//34 40//34 94//34 93//34
f 40//35 41//35 95//35 94//35
f 14//36 15//36 69//36 68//36
f 41//37 42//37 96//37 95//37
f 42//38 43//38 97//38 96//38
f 16//39 17//39 71//39 70//39
f 43//40 44//40 98//40 97//40
f 17//41 18//41 72//41 71//41
f 44//42 45//42 99//42 98//42
f 18//43 19//43 73//43 72//43
f 45//44 46//44 100//44 99//44
f 19//45 20//45 74//45 73//45
f 46//46 47//46 101//46 100//46
f 20//47 21//47 75//47 74//47
f 88//48 89//48 143//48 142//48
f 89//49 90//49 144//49 143//49
f 63//50 64//50 118//50 117//50
f 90//51 91//51 145//51 144//51
f 91//52 92//52 146//52 145//52
f 65//53 66//53 120//53 119//53
f 92//54 93//54 147//54 146//54
f 93//55 94//55 148//55 147//55
f 67//56 68//56 122//56 121//56
f 94//57 95//57 149//57 148//57
f 95//58 96//58 150//58 149//58
f 69//59 70//59 124//59 123//59
f 96//60 97//60 151//60 150//60
f 70//61 71//61 125//61 124//61
f 97//62 98//62 152//62 151//62
f 71//63 72//63 126//63 125//63
f 98//64 99//64 153//64 152//64
f 72//65 73//65 127//65 126//65
f 99//66 100//66 154//66 153//66
f 73//67 74//67 128//67 127//67
f 100//68 101//68 155//68 154//68
f 74//69 75//69 129//69 128//69
f 101//70 102//70 156//70 155//70
f 75//71 76//71 130//71 129//71
f 102//72 103//72 157//72 156//72
f 76//73 77//73 131//73 130//73
f 103//74 104//74 158//74 157//74
f 77//75 78//75 132//75 131//75
f 104//76 105//76 159//76 158//76
f 78//77 79//77 133//77 132//77
f 105//78 106//78 160//78 159//78
f 79//79 80//79 134//79 133//79
f 106//80 107//80 161//80 160//80
f 80//81 81//81 135//81 134//81
f 107//82 108//82 162//82 161//82
f 81//83 82//83 136//83 135//83
f 55//84 56//84 110//84 109//84
f 55//85 108//85 162//85 109//85
f 82//86 83//86 137//86 136//86
f 56//87 57//87 111//87 110//87
f 83//88 84//88 138//88 137//88
f 57//20 58//20 112//20 111//20
f 84//89 85//89 139//89 138//89
f 85//90 86//90 140//90 139//90
f 59//91 60//91 114//91 113//91
f 86//92 87//92 141//92 140//92
f 87//26 88//26 142//26 141//26
f 61//93 62//93 116//93 115//93
f 152//94 153//94 207//94 206//94
f 126//95 127//95 181//95 180//95
f 153//96 154//96 208//96 207//96
f 127//97 128//97 182//97 181//97
f 154//98 155//98 209//98 208//98
f 128//99 129//99 183//99 182//99
f 155//100 156//100 210//100 209//100
f 129//101 130//101 184//101 183//101
f 156//102 157//102 211//102 210//102
f 130//103 131//103 185//103 184//103
f 157//104 158//104 212//104 211//104
f 131//105 132//105 186//105 185//105
f 158//106 159//106 213//106 212//106
f 132//107 133//107 187//107 186//107
f 159//108 160//108 214//108 213//108
f 133//109 134//109 188//109 187//109
f 160//110 161//110 215//110 214//110
f 134//111 135//111 189//111 188//111
f 161//112 162//112 216//112 215//112
f 135//113 136//113 190//113 189//113
f 109//114 110//114 164//114 163//114
f 109//115 162//115 216//115 163//115
f 136//116 137//116 191//116 190//116
f 110//117 111//117 165//117 164//117
f 137//118 138//118 192//118 191//118
f 111//20 112//20 166//20 165//20
f 138//119 139//119 193//119 192//119
f 112//120 113//120 167//120 166//120
f 139//121 140//121 194//121 193//121
f 113//122 114//122 168//122 167//122
f 140//123 141//123 195//123 194//123
f 114//124 115//124 169//124 168//124
f 141//26 142//26 196//26 195//26
f 115//125 116//125 170//125 169//125
f 142//126 143//126 197//126 196//126
f 116//127 117//127 171//127 170//127
f 143//128 144//128 198//128 197//128
f 117//129 118//129 172//129 171//129
f 144//130 145//130 199//130 198//130
f 118//131 119//131 173//131 172//131
f 145//132 146//132 200//132 199//132
f 119//133 120//133 174//133 173//133
f 146//134 147//134 201//134 200//134
f 120//20 121//20 175//20 174//20
f 147//135 148//135 202//135 201//135
f 121//136 122//136 176//136 175//136
f 148//137 149//137 203//137 202//137
f 122//138 123//138 177//138 176//138
f 149//139 150//139 204//139 203//139
f 123//140 124//140 178//140 177//140
f 150//141 151//141 205//141 204//141
f 124//142 125//142 179//142 178//142
f 151//143 152//143 206//143 205//143
f 125//144 126//144 180//144 179//144
f 193//145 194//145 248//145 247//145
f 167//146 168//146 222//146 221//146
f 194//147 195//147 249//147 248//147
f 168//148 169//148 223//148 222//148
f 195//149 196//149 250//149 249//149
f 169//150 170//150 224//150 223//150
f 196//151 197//151 251//151 250//151
f 170//152 171//152 225//152 224//152
f 197//153 198//153 252//153 251//153
f 171//154 172//154 226//154 225//154
f 198//155 199//155 253//155 252//155
f 172//156 173//156 227//156 226//156
f 199//157 200//157 254//157 253//157
f 173//158 174//158 228//158 227//158
f 200//159 201//159 255//159 254//159
f 174//160 175//160 229//160 228//160
f 201//161 202//161 256//161 255//161
f 175//162 176//162 230//162 229//162
f 202//163 203//163 257//163 256//163
f 176//164 177//164 231//164 230//164
f 203//165 204//165 258//165 257//165
f 177//166 178//166 232//166 231//166
f 204//167 205//167 259//167 258//167
f 178//168 179//168 233//168 232//168
f 205//169 206//169 260//169 259//169
f 179//170 180//170 234//170 233//170
f 206//171 207//171 261//171 260//171
f 180//172 181//172 235//172 234//172
f 207//173 208//173 262//173 261//173
f 181//174 182//174 236//174 235//174
f 208//175 209//175 263//175 262//175
f 182//176 183//176 237//176 236//176
f 209//177 210//177 264//177 263//177
f 183//178 184//178 238//178 237//178
f 210//179 211//179 265//179 264//179
f 184//180 185//180 239//180 238//180
f 211//181 212//181 266//181 265//181
f 185//182 186//182 240//182 239//182
f 212//183 213//183 267//183 266//183
f 186//184 187//184 241//184 240//184
f 213//185 214//185 268//185 267//185
f 187//186 188//186 242//186 241//186
f 214//187 215//187 269//187 268//187
f 188//188 189//188 243//188 242//188
f 215//189 216//189 270//189 269//189
f 189//190 190//190 244//190 243//190
f 163//191 164//191 218//191 217//191
f 163//192 216//192 270//192 217//192
f 190//193 191//193 245//193 244//193
f 164//194 165//194 219//194 218//194
f 191//195 192//195 246//195 245//195
f 165//196 166//196 220//196 219//196
f 192//197 193//197 247//197 246//197
f 166//198 167//198 221//198 220//198
f 40//199 39//199 309//199 310//199
f 41//200 40//200 310//200 311//200
f 15//201 14//201 284//201 285//201
f 42//202 41//202 311//202 312//202
f 43//203 42//203 312//203 313//203
f 17//204 16//204 286//204 287//204
f 44//205 43//205 313//205 314//205
f 18//206 17//206 287//206 288//206
f 45//207 44//207 314//207 315//207
f 19//208 18//208 288//208 289//208
f 46//209 45//209 315//209 316//209
f 20//210 19//210 289//210 290//210
f 47//211 46//211 316//211 317//211
f 21//212 20//212 290//212 291//212
f 48//213 47//213 317//213 318//213
f 22//214 21//214 291//214 292//214
f 49//215 48//215 318//215 319//215
f 23//216 22//216 292//216 293//216
f 50//217 49//217 319//217 320//217
f 24//218 23//218 293//218 294//218
f 51//219 50//219 320//219 321//219
f 25//220 24//220 294//220 295//220
f 52//221 51//221 321//221 322//221
f 26//222 25//222 295//222 296//222
f 53//223 52//223 322//223 323//223
f 27//224 26//224 296//224 297//224
f 54//225 53//225 323//225 324//225
f 28//226 27//226 297//226 298//226
f 2//227 1//227 271//227 272//227
f 54//228 1//228 271//228 324//228
f 29//229 28//229 298//229 299//229
f 3//230 2//230 272//230 273//230
f 30//231 29//231 299//231 300//231
f 4//20 3//20 273//20 274//20
f 31//232 30//232 300//232 301//232
f 5//233 4//233 274//233 275//233
f 32//234 31//234 301//234 302//234
f 33//235 32//235 302//235 303//235
f 7//236 6//236 276//236 277//236
f 34//26 33//26 303//26 304//26
f 35//237 34//237 304//237 305//237
f 9//238 8//238 278//238 279//238
f 36//239 35//239 305//239 306//239
f 37//240 36//240 306//240 307//240
f 11//241 10//241 280//241 281//241
f 38//242 37//242 307//242 308//242
f 39//243 38//243 308//243 309//243
f 13//20 12//20 282//20 283//20
f 302//244 301//244 355//244 356//244
f 276//245 275//245 329//245 330//245
f 303//246 302//246 356//246 357//246
f 304//26 303//26 357//26 358//26
f 278//247 277//247 331//247 332//247
f 305//248 304//248 358//248 359//248
f 306//249 305//249 359//249 360//249
f 280//250 279//250 333//250 334//250
f 307//251 306//251 360//251 361//251
f 308//252 307//252 361//252 362//252
f 282//253 281//253 335//253 336//253
f 309//254 308//254 362//254 363//254
f 310//255 309//255 363//255 364//255
f 284//256 283//256 337//256 338//256
f 311//257 310//257 364//257 365//257
f 312//258 311//258 365//258 366//258
f 286//259 285//259 339//259 340//259
f 313//260 312//260 366//260 367//260
f 287//261 286//261 340//261 341//261
f 314//262 313//262 367//262 368//262
f 288//263 287//263 341//263 342//263
f 315//264 314//264 368//264 369//264
f 289//265 288//265 342//265 343//265
f 316//266 315//266 369//266 370//266
f 290//267 289//267 343//267 344//267
f 317//268 316//268 370//268 371//268
f 291//269 290//269 344//269 345//269
f 318//270 317//270 371//270 372//270
f 292//271 291//271 345//271 346//271
f 319//272 318//272 372//272 373//272
f 293//273 292//273 346//273 347//273
f 320//274 319//274 373//274 374//274
f 294//275 293//275 347//275 348//275
f 321//276 320//276 374//276 375//276
f 295//277 294//277 348//277 349//277
f 322//278 321//278 375//278 376//278
f 296//279 295//279 349//279 350//279
f 323//280 322//280 376//280 377//280
f 297//281 296//281 350//281 351//281
f 324//282 323//282 377//282 378//282
f 298//283 297//283 351//283 352//283
f 272//284 271//284 325//284 326//284
f 324//285 271//285 325//285 378//285
f 299//286 298//286 352//286 353//286
f 273//287 272//287 326//287 327//287
f 300//288 299//288 353//288 354//288
f 274//20 273//20 327//20 328//20
f 301//289 300//289 354//289 355//289
f 370//290 369//290 423//290 424//290
f 344//291 343//291 397//291 398//291
f 371//292 370//292 424//292 425//292
f 345//293 344//293 398//293 399//293
f 372//294 371//294 425//294 426//294
f 346//295 345//295 399//295 400//295
f 373//296 372//296 426//296 427//296
f 347//297 346//297 400//297 401//297
f 374//298 373//298 427//298 428//298
f 348//299 347//299 401//299 402//299
f 375//300 374//300 428//300 429//300
f 349//301 348//301 402//301 403//301
f 376//302 375//302 429//302 430//302
f 350//303 349//303 403//303 404//303
f 377//304 376//304 430//304 431//304
f 351//305 350//305 404//305 405//305
f 378//306 377//306 431//306 432//306
f 352//307 351//307 405//307 406//307
f 326//308 325//308 379//308 380//308
f 378//309 325//309 379//309 432//309
f 353//310 352//310 406//310 407//310
f 327//311 326//311 380//311 381//311
f 354//312 353//312 407//312 408//312
f 328//20 327//20 381//20 382//20
f 355//313 354//313 408//313 409//313
f 329//314 328//314 382//314 383//314
f 356//315 355//315 409//315 410//315
f 330//316 329//316 383//316 384//316
f 357//317 356//317 410//317 411//317
f 331//318 330//318 384//318 385//318
f 358//26 357//26 411//26 412//26
f 332//319 331//319 385//319 386//319
f 359//320 358//320 412//320 413//320
f 333//321 332//321 386//321 387//321
f 360//322 359//322 413//322 414//322
f 334//323 333//323 387//323 388//323
f 361//324 360//324 414//324 415//324
f 335//325 334//325 388//325 389//325
f 362//326 361//326 415//326 416//326
f 336//327 335//327 389//327 390//327
f 363//328 362//328 416//328 417//328
f 337//20 336//20 390//20 391//20
f 364//329 363//329 417//329 418//329
f 338//330 337//330 391//330 392//330
f 365//331 364//331 418//331 419//331
f 339//332 338//332 392//332 393//332
f 366//333 365//333 419//333 420//333
f 340//334 339//334 393//334 394//334
f 367//335 366//335 420//335 421//335
f 341//336 340//336 394//336 395//336
f 368//337 367//337 421//337 422//337
f 342//338 341//338 395//338 396//338
f 369//339 368//339 422//339 423//339
f 343//340 342//340 396//340 397//340
f 379//341 432//341 431//341 430//341 429//341 428//341 427//341 426//341 425//341 424//341 423//341 422//341 421//341 420//341 419//341 418//341 417//341 416//341 415//341 414//341 413//341 412//341 411//341 410//341 409//341 408//341 407//341 406//341 405//341 404//341 403//341 402//341 401//341 400//341 399//341 398//341 397//341 396//341 395//341 394//341 393//341 392//341 391//341 390//341 389//341 388//341 387//341 386//341 385//341 384//341 383//341 382//341 381//341 380//341
f 217//342 218//342 219//342 220//342 221//342 222//342 223//342 224//342 225//342 226//342 227//342 228//342 229//342 230//342 231//342 232//342 233//342 234//342 235//342 236//342 237//342 238//342 239//342 240//342 241//342 242//342 243//342 244//342 245//342 246//342 247//342 248//342 249//342 250//342 251//342 252//342 253//342 254//342 255//342 256//342 257//342 258//342 259//342 260//342 261//342 262//342 263//342 264//342 265//342 266//342 267//342 268//342 269//342 270//342
usemtl Material.001
f 5//343 6//343 60//343 59//343
f 7//344 8//344 62//344 61//344
f 9//345 10//345 64//345 63//345
f 11//346 12//346 66//346 65//346
f 13//347 14//347 68//347 67//347
f 15//348 16//348 70//348 69//348
f 62//349 63//349 117//349 116//349
f 64//350 65//350 119//350 118//350
f 66//20 67//20 121//20 120//20
f 68//351 69//351 123//351 122//351
f 58//352 59//352 113//352 112//352
f 60//353 61//353 115//353 114//353
f 14//354 13//354 283//354 284//354
f 16//355 15//355 285//355 286//355
f 6//356 5//356 275//356 276//356
f 8//357 7//357 277//357 278//357
f 10//358 9//358 279//358 280//358
f 12//359 11//359 281//359 282//359
f 275//360 274//360 328//360 329//360
f 277//361 276//361 330//361 331//361
f 279//362 278//362 332//362 333//362
f 281//363 280//363 334//363 335//363
f 283//20 282//20 336//20 337//20
f 285//364 284//364 338//364 339//364
